<mxfile host="app.diagrams.net" modified="2022-03-07T18:41:09.403Z" agent="5.0 (Windows NT 10.0; Win64; x64) AppleWebKit/537.36 (KHTML, like Gecko) Chrome/98.0.4758.102 Safari/537.36" etag="sVnz355X3FTgcrZM82aK" version="16.6.4" type="github" pages="2">
  <diagram id="eH2NaIRgt8ivTFPS_C4d" name="Page-1">
    <mxGraphModel dx="2025" dy="964" grid="1" gridSize="10" guides="1" tooltips="1" connect="1" arrows="1" fold="1" page="1" pageScale="1" pageWidth="827" pageHeight="1169" math="0" shadow="0">
      <root>
        <mxCell id="0" />
        <mxCell id="1" parent="0" />
        <mxCell id="_Voz9XMiUNPfRl7ly0Tl-1" value="&lt;font style=&quot;font-size: 14px&quot;&gt;&lt;b&gt;本体映射&lt;/b&gt;&lt;/font&gt;" style="rounded=0;whiteSpace=wrap;html=1;dashed=1;fillColor=none;verticalAlign=bottom;fontColor=#000000;align=right;" parent="1" vertex="1">
          <mxGeometry x="-629" y="154.61" width="650" height="250" as="geometry" />
        </mxCell>
        <mxCell id="_Voz9XMiUNPfRl7ly0Tl-286" value="" style="ellipse;whiteSpace=wrap;html=1;aspect=fixed;fillColor=none;dashed=1;" parent="1" vertex="1">
          <mxGeometry x="-310" y="446.22" width="89.78" height="89.78" as="geometry" />
        </mxCell>
        <mxCell id="_Voz9XMiUNPfRl7ly0Tl-287" value="" style="ellipse;whiteSpace=wrap;html=1;aspect=fixed;fillColor=none;dashed=1;" parent="1" vertex="1">
          <mxGeometry x="-348.5" y="509.61" width="89.78" height="89.78" as="geometry" />
        </mxCell>
        <mxCell id="_Voz9XMiUNPfRl7ly0Tl-107" value="迭代" style="ellipse;whiteSpace=wrap;html=1;fontSize=14;fillColor=#bac8d3;strokeColor=#23445d;" parent="1" vertex="1">
          <mxGeometry x="-356" y="250.61" width="87" height="58" as="geometry" />
        </mxCell>
        <mxCell id="_Voz9XMiUNPfRl7ly0Tl-65" value="" style="ellipse;whiteSpace=wrap;html=1;aspect=fixed;fillColor=none;" parent="1" vertex="1">
          <mxGeometry x="-96.5" y="281.61" width="70" height="70" as="geometry" />
        </mxCell>
        <mxCell id="_Voz9XMiUNPfRl7ly0Tl-77" value="" style="ellipse;whiteSpace=wrap;html=1;aspect=fixed;fillColor=none;" parent="1" vertex="1">
          <mxGeometry x="-66.5" y="211.61" width="70" height="70" as="geometry" />
        </mxCell>
        <mxCell id="_Voz9XMiUNPfRl7ly0Tl-17" value="" style="ellipse;whiteSpace=wrap;html=1;aspect=fixed;fillColor=none;" parent="1" vertex="1">
          <mxGeometry x="-622.5" y="279.61" width="70" height="70" as="geometry" />
        </mxCell>
        <mxCell id="_Voz9XMiUNPfRl7ly0Tl-29" value="" style="ellipse;whiteSpace=wrap;html=1;aspect=fixed;fillColor=none;" parent="1" vertex="1">
          <mxGeometry x="-592.5" y="209.61" width="70" height="70" as="geometry" />
        </mxCell>
        <mxCell id="_Voz9XMiUNPfRl7ly0Tl-2" value="" style="ellipse;whiteSpace=wrap;html=1;aspect=fixed;fillColor=#ffe6cc;strokeColor=#d79b00;" parent="1" vertex="1">
          <mxGeometry x="-602.5" y="306.61" width="10" height="10" as="geometry" />
        </mxCell>
        <mxCell id="_Voz9XMiUNPfRl7ly0Tl-3" value="" style="ellipse;whiteSpace=wrap;html=1;aspect=fixed;fillColor=#dae8fc;strokeColor=#6c8ebf;" parent="1" vertex="1">
          <mxGeometry x="-592.5" y="286.61" width="10" height="10" as="geometry" />
        </mxCell>
        <mxCell id="_Voz9XMiUNPfRl7ly0Tl-7" value="" style="ellipse;whiteSpace=wrap;html=1;aspect=fixed;fillColor=#e1d5e7;strokeColor=#9673a6;" parent="1" vertex="1">
          <mxGeometry x="-592.5" y="326.61" width="10" height="10" as="geometry" />
        </mxCell>
        <mxCell id="_Voz9XMiUNPfRl7ly0Tl-8" value="" style="ellipse;whiteSpace=wrap;html=1;aspect=fixed;fillColor=#d5e8d4;strokeColor=#82b366;" parent="1" vertex="1">
          <mxGeometry x="-582.5" y="306.61" width="10" height="10" as="geometry" />
        </mxCell>
        <mxCell id="_Voz9XMiUNPfRl7ly0Tl-9" value="" style="ellipse;whiteSpace=wrap;html=1;aspect=fixed;fillColor=#f8cecc;strokeColor=#b85450;" parent="1" vertex="1">
          <mxGeometry x="-572.5" y="326.61" width="10" height="10" as="geometry" />
        </mxCell>
        <mxCell id="_Voz9XMiUNPfRl7ly0Tl-10" value="" style="ellipse;whiteSpace=wrap;html=1;aspect=fixed;fillColor=#fff2cc;strokeColor=#d6b656;" parent="1" vertex="1">
          <mxGeometry x="-612.5" y="326.61" width="10" height="10" as="geometry" />
        </mxCell>
        <mxCell id="_Voz9XMiUNPfRl7ly0Tl-11" value="" style="endArrow=none;html=1;rounded=0;entryX=0;entryY=1;entryDx=0;entryDy=0;exitX=0.5;exitY=0;exitDx=0;exitDy=0;" parent="1" source="_Voz9XMiUNPfRl7ly0Tl-2" target="_Voz9XMiUNPfRl7ly0Tl-3" edge="1">
          <mxGeometry width="50" height="50" relative="1" as="geometry">
            <mxPoint x="-682.5" y="326.61" as="sourcePoint" />
            <mxPoint x="-632.5" y="276.61" as="targetPoint" />
          </mxGeometry>
        </mxCell>
        <mxCell id="_Voz9XMiUNPfRl7ly0Tl-12" value="" style="endArrow=none;html=1;rounded=0;exitX=0.5;exitY=0;exitDx=0;exitDy=0;entryX=1;entryY=1;entryDx=0;entryDy=0;" parent="1" source="_Voz9XMiUNPfRl7ly0Tl-8" target="_Voz9XMiUNPfRl7ly0Tl-3" edge="1">
          <mxGeometry width="50" height="50" relative="1" as="geometry">
            <mxPoint x="-682.5" y="326.61" as="sourcePoint" />
            <mxPoint x="-572.5" y="296.61" as="targetPoint" />
          </mxGeometry>
        </mxCell>
        <mxCell id="_Voz9XMiUNPfRl7ly0Tl-14" value="" style="endArrow=none;html=1;rounded=0;entryX=0;entryY=1;entryDx=0;entryDy=0;exitX=0.5;exitY=0;exitDx=0;exitDy=0;" parent="1" source="_Voz9XMiUNPfRl7ly0Tl-10" target="_Voz9XMiUNPfRl7ly0Tl-2" edge="1">
          <mxGeometry width="50" height="50" relative="1" as="geometry">
            <mxPoint x="-608.5" y="325.61" as="sourcePoint" />
            <mxPoint x="-602.5" y="314.61" as="targetPoint" />
          </mxGeometry>
        </mxCell>
        <mxCell id="_Voz9XMiUNPfRl7ly0Tl-15" value="" style="endArrow=none;html=1;rounded=0;exitX=0.5;exitY=0;exitDx=0;exitDy=0;entryX=1;entryY=1;entryDx=0;entryDy=0;" parent="1" source="_Voz9XMiUNPfRl7ly0Tl-7" target="_Voz9XMiUNPfRl7ly0Tl-2" edge="1">
          <mxGeometry width="50" height="50" relative="1" as="geometry">
            <mxPoint x="-567.5" y="316.61" as="sourcePoint" />
            <mxPoint x="-573.9644660940673" y="305.14553390593267" as="targetPoint" />
          </mxGeometry>
        </mxCell>
        <mxCell id="_Voz9XMiUNPfRl7ly0Tl-16" value="" style="endArrow=none;html=1;rounded=0;exitX=0.5;exitY=0;exitDx=0;exitDy=0;entryX=1;entryY=1;entryDx=0;entryDy=0;" parent="1" source="_Voz9XMiUNPfRl7ly0Tl-9" target="_Voz9XMiUNPfRl7ly0Tl-8" edge="1">
          <mxGeometry width="50" height="50" relative="1" as="geometry">
            <mxPoint x="-577.5" y="336.61" as="sourcePoint" />
            <mxPoint x="-583.9644660940673" y="325.14553390593267" as="targetPoint" />
          </mxGeometry>
        </mxCell>
        <mxCell id="_Voz9XMiUNPfRl7ly0Tl-18" value="" style="ellipse;whiteSpace=wrap;html=1;aspect=fixed;fillColor=#ffe6cc;strokeColor=#d79b00;" parent="1" vertex="1">
          <mxGeometry x="-572.5" y="236.61" width="10" height="10" as="geometry" />
        </mxCell>
        <mxCell id="_Voz9XMiUNPfRl7ly0Tl-19" value="" style="ellipse;whiteSpace=wrap;html=1;aspect=fixed;fillColor=#dae8fc;strokeColor=#6c8ebf;" parent="1" vertex="1">
          <mxGeometry x="-562.5" y="216.61" width="10" height="10" as="geometry" />
        </mxCell>
        <mxCell id="_Voz9XMiUNPfRl7ly0Tl-20" value="" style="ellipse;whiteSpace=wrap;html=1;aspect=fixed;fillColor=#e1d5e7;strokeColor=#9673a6;" parent="1" vertex="1">
          <mxGeometry x="-562.5" y="256.61" width="10" height="10" as="geometry" />
        </mxCell>
        <mxCell id="_Voz9XMiUNPfRl7ly0Tl-21" value="" style="ellipse;whiteSpace=wrap;html=1;aspect=fixed;fillColor=#d5e8d4;strokeColor=#82b366;" parent="1" vertex="1">
          <mxGeometry x="-552.5" y="236.61" width="10" height="10" as="geometry" />
        </mxCell>
        <mxCell id="_Voz9XMiUNPfRl7ly0Tl-22" value="" style="ellipse;whiteSpace=wrap;html=1;aspect=fixed;fillColor=#f8cecc;strokeColor=#b85450;" parent="1" vertex="1">
          <mxGeometry x="-542.5" y="256.61" width="10" height="10" as="geometry" />
        </mxCell>
        <mxCell id="_Voz9XMiUNPfRl7ly0Tl-23" value="" style="ellipse;whiteSpace=wrap;html=1;aspect=fixed;fillColor=#fff2cc;strokeColor=#d6b656;" parent="1" vertex="1">
          <mxGeometry x="-582.5" y="256.61" width="10" height="10" as="geometry" />
        </mxCell>
        <mxCell id="_Voz9XMiUNPfRl7ly0Tl-24" value="" style="endArrow=none;html=1;rounded=0;entryX=0;entryY=1;entryDx=0;entryDy=0;exitX=0.5;exitY=0;exitDx=0;exitDy=0;" parent="1" source="_Voz9XMiUNPfRl7ly0Tl-18" target="_Voz9XMiUNPfRl7ly0Tl-19" edge="1">
          <mxGeometry width="50" height="50" relative="1" as="geometry">
            <mxPoint x="-652.5" y="256.61" as="sourcePoint" />
            <mxPoint x="-602.5" y="206.61" as="targetPoint" />
          </mxGeometry>
        </mxCell>
        <mxCell id="_Voz9XMiUNPfRl7ly0Tl-25" value="" style="endArrow=none;html=1;rounded=0;exitX=0.5;exitY=0;exitDx=0;exitDy=0;entryX=1;entryY=1;entryDx=0;entryDy=0;" parent="1" source="_Voz9XMiUNPfRl7ly0Tl-21" target="_Voz9XMiUNPfRl7ly0Tl-19" edge="1">
          <mxGeometry width="50" height="50" relative="1" as="geometry">
            <mxPoint x="-652.5" y="256.61" as="sourcePoint" />
            <mxPoint x="-542.5" y="226.61" as="targetPoint" />
          </mxGeometry>
        </mxCell>
        <mxCell id="_Voz9XMiUNPfRl7ly0Tl-26" value="" style="endArrow=none;html=1;rounded=0;entryX=0;entryY=1;entryDx=0;entryDy=0;exitX=0.5;exitY=0;exitDx=0;exitDy=0;" parent="1" source="_Voz9XMiUNPfRl7ly0Tl-23" target="_Voz9XMiUNPfRl7ly0Tl-18" edge="1">
          <mxGeometry width="50" height="50" relative="1" as="geometry">
            <mxPoint x="-578.5" y="255.61" as="sourcePoint" />
            <mxPoint x="-572.5" y="244.61" as="targetPoint" />
          </mxGeometry>
        </mxCell>
        <mxCell id="_Voz9XMiUNPfRl7ly0Tl-27" value="" style="endArrow=none;html=1;rounded=0;exitX=0.5;exitY=0;exitDx=0;exitDy=0;entryX=1;entryY=1;entryDx=0;entryDy=0;" parent="1" source="_Voz9XMiUNPfRl7ly0Tl-20" target="_Voz9XMiUNPfRl7ly0Tl-18" edge="1">
          <mxGeometry width="50" height="50" relative="1" as="geometry">
            <mxPoint x="-537.5" y="246.61" as="sourcePoint" />
            <mxPoint x="-543.9644660940673" y="235.14553390593267" as="targetPoint" />
          </mxGeometry>
        </mxCell>
        <mxCell id="_Voz9XMiUNPfRl7ly0Tl-28" value="" style="endArrow=none;html=1;rounded=0;exitX=0.5;exitY=0;exitDx=0;exitDy=0;entryX=1;entryY=1;entryDx=0;entryDy=0;" parent="1" source="_Voz9XMiUNPfRl7ly0Tl-22" target="_Voz9XMiUNPfRl7ly0Tl-21" edge="1">
          <mxGeometry width="50" height="50" relative="1" as="geometry">
            <mxPoint x="-547.5" y="266.61" as="sourcePoint" />
            <mxPoint x="-553.9644660940673" y="255.14553390593267" as="targetPoint" />
          </mxGeometry>
        </mxCell>
        <mxCell id="_Voz9XMiUNPfRl7ly0Tl-54" value="" style="ellipse;whiteSpace=wrap;html=1;aspect=fixed;fillColor=#ffe6cc;strokeColor=#d79b00;" parent="1" vertex="1">
          <mxGeometry x="-76.5" y="308.61" width="10" height="10" as="geometry" />
        </mxCell>
        <mxCell id="_Voz9XMiUNPfRl7ly0Tl-55" value="" style="ellipse;whiteSpace=wrap;html=1;aspect=fixed;fillColor=#dae8fc;strokeColor=#6c8ebf;" parent="1" vertex="1">
          <mxGeometry x="-66.5" y="288.61" width="10" height="10" as="geometry" />
        </mxCell>
        <mxCell id="_Voz9XMiUNPfRl7ly0Tl-56" value="" style="ellipse;whiteSpace=wrap;html=1;aspect=fixed;fillColor=#e1d5e7;strokeColor=#9673a6;" parent="1" vertex="1">
          <mxGeometry x="-66.5" y="328.61" width="10" height="10" as="geometry" />
        </mxCell>
        <mxCell id="_Voz9XMiUNPfRl7ly0Tl-57" value="" style="ellipse;whiteSpace=wrap;html=1;aspect=fixed;fillColor=#d5e8d4;strokeColor=#82b366;" parent="1" vertex="1">
          <mxGeometry x="-56.5" y="308.61" width="10" height="10" as="geometry" />
        </mxCell>
        <mxCell id="_Voz9XMiUNPfRl7ly0Tl-58" value="" style="ellipse;whiteSpace=wrap;html=1;aspect=fixed;fillColor=#f8cecc;strokeColor=#b85450;" parent="1" vertex="1">
          <mxGeometry x="-46.5" y="328.61" width="10" height="10" as="geometry" />
        </mxCell>
        <mxCell id="_Voz9XMiUNPfRl7ly0Tl-59" value="" style="ellipse;whiteSpace=wrap;html=1;aspect=fixed;fillColor=#fff2cc;strokeColor=#d6b656;" parent="1" vertex="1">
          <mxGeometry x="-86.5" y="328.61" width="10" height="10" as="geometry" />
        </mxCell>
        <mxCell id="_Voz9XMiUNPfRl7ly0Tl-60" value="" style="endArrow=none;html=1;rounded=0;entryX=0;entryY=1;entryDx=0;entryDy=0;exitX=0.5;exitY=0;exitDx=0;exitDy=0;" parent="1" source="_Voz9XMiUNPfRl7ly0Tl-54" target="_Voz9XMiUNPfRl7ly0Tl-55" edge="1">
          <mxGeometry width="50" height="50" relative="1" as="geometry">
            <mxPoint x="-156.5" y="328.61" as="sourcePoint" />
            <mxPoint x="-106.5" y="278.61" as="targetPoint" />
          </mxGeometry>
        </mxCell>
        <mxCell id="_Voz9XMiUNPfRl7ly0Tl-61" value="" style="endArrow=none;html=1;rounded=0;exitX=0.5;exitY=0;exitDx=0;exitDy=0;entryX=1;entryY=1;entryDx=0;entryDy=0;" parent="1" source="_Voz9XMiUNPfRl7ly0Tl-57" target="_Voz9XMiUNPfRl7ly0Tl-55" edge="1">
          <mxGeometry width="50" height="50" relative="1" as="geometry">
            <mxPoint x="-156.5" y="328.61" as="sourcePoint" />
            <mxPoint x="-46.5" y="298.61" as="targetPoint" />
          </mxGeometry>
        </mxCell>
        <mxCell id="_Voz9XMiUNPfRl7ly0Tl-62" value="" style="endArrow=none;html=1;rounded=0;entryX=0;entryY=1;entryDx=0;entryDy=0;exitX=0.5;exitY=0;exitDx=0;exitDy=0;" parent="1" source="_Voz9XMiUNPfRl7ly0Tl-59" target="_Voz9XMiUNPfRl7ly0Tl-54" edge="1">
          <mxGeometry width="50" height="50" relative="1" as="geometry">
            <mxPoint x="-82.5" y="327.61" as="sourcePoint" />
            <mxPoint x="-76.5" y="316.61" as="targetPoint" />
          </mxGeometry>
        </mxCell>
        <mxCell id="_Voz9XMiUNPfRl7ly0Tl-63" value="" style="endArrow=none;html=1;rounded=0;exitX=0.5;exitY=0;exitDx=0;exitDy=0;entryX=1;entryY=1;entryDx=0;entryDy=0;" parent="1" source="_Voz9XMiUNPfRl7ly0Tl-56" target="_Voz9XMiUNPfRl7ly0Tl-54" edge="1">
          <mxGeometry width="50" height="50" relative="1" as="geometry">
            <mxPoint x="-41.5" y="318.61" as="sourcePoint" />
            <mxPoint x="-47.96446609406735" y="307.14553390593267" as="targetPoint" />
          </mxGeometry>
        </mxCell>
        <mxCell id="_Voz9XMiUNPfRl7ly0Tl-64" value="" style="endArrow=none;html=1;rounded=0;exitX=0.5;exitY=0;exitDx=0;exitDy=0;entryX=1;entryY=1;entryDx=0;entryDy=0;" parent="1" source="_Voz9XMiUNPfRl7ly0Tl-58" target="_Voz9XMiUNPfRl7ly0Tl-57" edge="1">
          <mxGeometry width="50" height="50" relative="1" as="geometry">
            <mxPoint x="-51.5" y="338.61" as="sourcePoint" />
            <mxPoint x="-57.96446609406735" y="327.14553390593267" as="targetPoint" />
          </mxGeometry>
        </mxCell>
        <mxCell id="_Voz9XMiUNPfRl7ly0Tl-66" value="" style="ellipse;whiteSpace=wrap;html=1;aspect=fixed;fillColor=#ffe6cc;strokeColor=#d79b00;" parent="1" vertex="1">
          <mxGeometry x="-46.5" y="238.61" width="10" height="10" as="geometry" />
        </mxCell>
        <mxCell id="_Voz9XMiUNPfRl7ly0Tl-67" value="" style="ellipse;whiteSpace=wrap;html=1;aspect=fixed;fillColor=#dae8fc;strokeColor=#6c8ebf;" parent="1" vertex="1">
          <mxGeometry x="-36.5" y="218.61" width="10" height="10" as="geometry" />
        </mxCell>
        <mxCell id="_Voz9XMiUNPfRl7ly0Tl-68" value="" style="ellipse;whiteSpace=wrap;html=1;aspect=fixed;fillColor=#e1d5e7;strokeColor=#9673a6;" parent="1" vertex="1">
          <mxGeometry x="-36.5" y="258.61" width="10" height="10" as="geometry" />
        </mxCell>
        <mxCell id="_Voz9XMiUNPfRl7ly0Tl-69" value="" style="ellipse;whiteSpace=wrap;html=1;aspect=fixed;fillColor=#d5e8d4;strokeColor=#82b366;" parent="1" vertex="1">
          <mxGeometry x="-26.5" y="238.61" width="10" height="10" as="geometry" />
        </mxCell>
        <mxCell id="_Voz9XMiUNPfRl7ly0Tl-70" value="" style="ellipse;whiteSpace=wrap;html=1;aspect=fixed;fillColor=#f8cecc;strokeColor=#b85450;" parent="1" vertex="1">
          <mxGeometry x="-16.5" y="258.61" width="10" height="10" as="geometry" />
        </mxCell>
        <mxCell id="_Voz9XMiUNPfRl7ly0Tl-71" value="" style="ellipse;whiteSpace=wrap;html=1;aspect=fixed;fillColor=#fff2cc;strokeColor=#d6b656;" parent="1" vertex="1">
          <mxGeometry x="-56.5" y="258.61" width="10" height="10" as="geometry" />
        </mxCell>
        <mxCell id="_Voz9XMiUNPfRl7ly0Tl-72" value="" style="endArrow=none;html=1;rounded=0;entryX=0;entryY=1;entryDx=0;entryDy=0;exitX=0.5;exitY=0;exitDx=0;exitDy=0;" parent="1" source="_Voz9XMiUNPfRl7ly0Tl-66" target="_Voz9XMiUNPfRl7ly0Tl-67" edge="1">
          <mxGeometry width="50" height="50" relative="1" as="geometry">
            <mxPoint x="-126.5" y="258.61" as="sourcePoint" />
            <mxPoint x="-76.5" y="208.61" as="targetPoint" />
          </mxGeometry>
        </mxCell>
        <mxCell id="_Voz9XMiUNPfRl7ly0Tl-73" value="" style="endArrow=none;html=1;rounded=0;exitX=0.5;exitY=0;exitDx=0;exitDy=0;entryX=1;entryY=1;entryDx=0;entryDy=0;" parent="1" source="_Voz9XMiUNPfRl7ly0Tl-69" target="_Voz9XMiUNPfRl7ly0Tl-67" edge="1">
          <mxGeometry width="50" height="50" relative="1" as="geometry">
            <mxPoint x="-126.5" y="258.61" as="sourcePoint" />
            <mxPoint x="-16.5" y="228.61" as="targetPoint" />
          </mxGeometry>
        </mxCell>
        <mxCell id="_Voz9XMiUNPfRl7ly0Tl-74" value="" style="endArrow=none;html=1;rounded=0;entryX=0;entryY=1;entryDx=0;entryDy=0;exitX=0.5;exitY=0;exitDx=0;exitDy=0;" parent="1" source="_Voz9XMiUNPfRl7ly0Tl-71" target="_Voz9XMiUNPfRl7ly0Tl-66" edge="1">
          <mxGeometry width="50" height="50" relative="1" as="geometry">
            <mxPoint x="-52.5" y="257.61" as="sourcePoint" />
            <mxPoint x="-46.5" y="246.61" as="targetPoint" />
          </mxGeometry>
        </mxCell>
        <mxCell id="_Voz9XMiUNPfRl7ly0Tl-75" value="" style="endArrow=none;html=1;rounded=0;exitX=0.5;exitY=0;exitDx=0;exitDy=0;entryX=1;entryY=1;entryDx=0;entryDy=0;" parent="1" source="_Voz9XMiUNPfRl7ly0Tl-68" target="_Voz9XMiUNPfRl7ly0Tl-66" edge="1">
          <mxGeometry width="50" height="50" relative="1" as="geometry">
            <mxPoint x="-11.5" y="248.61" as="sourcePoint" />
            <mxPoint x="-17.964466094067348" y="237.14553390593267" as="targetPoint" />
          </mxGeometry>
        </mxCell>
        <mxCell id="_Voz9XMiUNPfRl7ly0Tl-76" value="" style="endArrow=none;html=1;rounded=0;exitX=0.5;exitY=0;exitDx=0;exitDy=0;entryX=1;entryY=1;entryDx=0;entryDy=0;" parent="1" source="_Voz9XMiUNPfRl7ly0Tl-70" target="_Voz9XMiUNPfRl7ly0Tl-69" edge="1">
          <mxGeometry width="50" height="50" relative="1" as="geometry">
            <mxPoint x="-21.5" y="268.61" as="sourcePoint" />
            <mxPoint x="-27.964466094067348" y="257.14553390593267" as="targetPoint" />
          </mxGeometry>
        </mxCell>
        <mxCell id="_Voz9XMiUNPfRl7ly0Tl-79" value="特征提取" style="rounded=0;whiteSpace=wrap;html=1;fillColor=#dae8fc;strokeColor=#6c8ebf;" parent="1" vertex="1">
          <mxGeometry x="-457.5" y="270.61" width="70" height="30" as="geometry" />
        </mxCell>
        <mxCell id="_Voz9XMiUNPfRl7ly0Tl-81" value="相似度计算" style="rounded=0;whiteSpace=wrap;html=1;fillColor=#CDDAED;strokeColor=#6585B3;" parent="1" vertex="1">
          <mxGeometry x="-347.5" y="181.61" width="70" height="30" as="geometry" />
        </mxCell>
        <mxCell id="_Voz9XMiUNPfRl7ly0Tl-82" value="相似度结合" style="rounded=0;whiteSpace=wrap;html=1;fillColor=#B7C2D4;strokeColor=#6c8ebf;" parent="1" vertex="1">
          <mxGeometry x="-237.5" y="270.61" width="70" height="30" as="geometry" />
        </mxCell>
        <mxCell id="_Voz9XMiUNPfRl7ly0Tl-83" value="解释" style="rounded=0;whiteSpace=wrap;html=1;fillColor=#A1ACBA;strokeColor=#6c8ebf;" parent="1" vertex="1">
          <mxGeometry x="-347.5" y="350.61" width="70" height="30" as="geometry" />
        </mxCell>
        <mxCell id="_Voz9XMiUNPfRl7ly0Tl-87" value="" style="html=1;shadow=0;dashed=0;align=center;verticalAlign=middle;shape=mxgraph.arrows2.jumpInArrow;dy=6.62;dx=19.67;arrowHead=40.8;fillColor=#F7F7F7;rotation=-15;gradientColor=#b3b3b3;strokeColor=#666666;" parent="1" vertex="1">
          <mxGeometry x="-426.61" y="198.23000000000002" width="50.18" height="45.39" as="geometry" />
        </mxCell>
        <mxCell id="_Voz9XMiUNPfRl7ly0Tl-88" value="" style="html=1;shadow=0;dashed=0;align=center;verticalAlign=middle;shape=mxgraph.arrows2.jumpInArrow;dy=6.62;dx=19.67;arrowHead=40.8;fillColor=#f5f5f5;rotation=-120;gradientColor=#b3b3b3;strokeColor=#666666;" parent="1" vertex="1">
          <mxGeometry x="-427.61" y="320.61" width="50.18" height="45.39" as="geometry" />
        </mxCell>
        <mxCell id="_Voz9XMiUNPfRl7ly0Tl-89" value="" style="html=1;shadow=0;dashed=0;align=center;verticalAlign=middle;shape=mxgraph.arrows2.jumpInArrow;dy=6.62;dx=19.67;arrowHead=40.8;fillColor=#f5f5f5;rotation=75;gradientColor=#b3b3b3;strokeColor=#666666;" parent="1" vertex="1">
          <mxGeometry x="-239.67999999999995" y="200.22000000000003" width="50.18" height="45.39" as="geometry" />
        </mxCell>
        <mxCell id="_Voz9XMiUNPfRl7ly0Tl-90" value="" style="html=1;shadow=0;dashed=0;align=center;verticalAlign=middle;shape=mxgraph.arrows2.jumpInArrow;dy=6.62;dx=19.67;arrowHead=40.8;fillColor=#f5f5f5;rotation=-195;direction=east;gradientColor=#b3b3b3;strokeColor=#666666;" parent="1" vertex="1">
          <mxGeometry x="-247.49999999999994" y="322.92" width="50.18" height="45.39" as="geometry" />
        </mxCell>
        <mxCell id="_Voz9XMiUNPfRl7ly0Tl-91" value="" style="html=1;shadow=0;dashed=0;align=center;verticalAlign=middle;shape=mxgraph.arrows2.arrow;dy=0.68;dx=20;notch=0;fillColor=none;" parent="1" vertex="1">
          <mxGeometry x="-530.5" y="275.61" width="60" height="20" as="geometry" />
        </mxCell>
        <mxCell id="_Voz9XMiUNPfRl7ly0Tl-92" value="Input" style="text;html=1;strokeColor=none;fillColor=none;align=center;verticalAlign=middle;whiteSpace=wrap;rounded=0;" parent="1" vertex="1">
          <mxGeometry x="-539.5" y="262.61" width="60" height="17" as="geometry" />
        </mxCell>
        <mxCell id="_Voz9XMiUNPfRl7ly0Tl-96" value="" style="html=1;shadow=0;dashed=0;align=center;verticalAlign=middle;shape=mxgraph.arrows2.arrow;dy=0.68;dx=20;notch=0;fillColor=none;" parent="1" vertex="1">
          <mxGeometry x="-164.5" y="275.61" width="60" height="20" as="geometry" />
        </mxCell>
        <mxCell id="_Voz9XMiUNPfRl7ly0Tl-97" value="Output" style="text;html=1;strokeColor=none;fillColor=none;align=center;verticalAlign=middle;whiteSpace=wrap;rounded=0;" parent="1" vertex="1">
          <mxGeometry x="-176.5" y="260.61" width="60" height="20" as="geometry" />
        </mxCell>
        <mxCell id="_Voz9XMiUNPfRl7ly0Tl-99" value="" style="curved=1;endArrow=none;html=1;rounded=0;endFill=0;dashed=1;exitX=0.257;exitY=0.814;exitDx=0;exitDy=0;exitPerimeter=0;entryX=0;entryY=0.5;entryDx=0;entryDy=0;" parent="1" target="_Voz9XMiUNPfRl7ly0Tl-71" edge="1">
          <mxGeometry width="50" height="50" relative="1" as="geometry">
            <mxPoint x="-84.5100000000001" y="336.5899999999999" as="sourcePoint" />
            <mxPoint x="-58.5" y="258.61" as="targetPoint" />
            <Array as="points">
              <mxPoint x="-98.5" y="328.61" />
              <mxPoint x="-107.5" y="268.61" />
            </Array>
          </mxGeometry>
        </mxCell>
        <mxCell id="_Voz9XMiUNPfRl7ly0Tl-100" value="" style="curved=1;endArrow=none;html=1;rounded=0;endFill=0;dashed=1;entryX=0.257;entryY=0.814;entryDx=0;entryDy=0;entryPerimeter=0;exitX=0;exitY=0.5;exitDx=0;exitDy=0;" parent="1" source="_Voz9XMiUNPfRl7ly0Tl-54" edge="1">
          <mxGeometry width="50" height="50" relative="1" as="geometry">
            <mxPoint x="-61.5" y="368.61" as="sourcePoint" />
            <mxPoint x="-45.510000000000105" y="241.58999999999992" as="targetPoint" />
            <Array as="points">
              <mxPoint x="-88.5" y="288.61" />
              <mxPoint x="-97.5" y="258.61" />
              <mxPoint x="-78.5" y="241.61" />
            </Array>
          </mxGeometry>
        </mxCell>
        <mxCell id="_Voz9XMiUNPfRl7ly0Tl-101" value="" style="curved=1;endArrow=none;html=1;rounded=0;endFill=0;dashed=1;entryX=0;entryY=0.5;entryDx=0;entryDy=0;exitX=0;exitY=0.5;exitDx=0;exitDy=0;" parent="1" source="_Voz9XMiUNPfRl7ly0Tl-55" target="_Voz9XMiUNPfRl7ly0Tl-67" edge="1">
          <mxGeometry width="50" height="50" relative="1" as="geometry">
            <mxPoint x="-66.5" y="323.61" as="sourcePoint" />
            <mxPoint x="-35.510000000000105" y="251.58999999999992" as="targetPoint" />
            <Array as="points">
              <mxPoint x="-87.5" y="268.61" />
              <mxPoint x="-87.5" y="238.61" />
              <mxPoint x="-67.5" y="223.61" />
            </Array>
          </mxGeometry>
        </mxCell>
        <mxCell id="_Voz9XMiUNPfRl7ly0Tl-102" value="" style="curved=1;endArrow=none;html=1;rounded=0;endFill=0;dashed=1;entryX=1;entryY=0.5;entryDx=0;entryDy=0;exitX=1;exitY=0;exitDx=0;exitDy=0;" parent="1" source="_Voz9XMiUNPfRl7ly0Tl-57" target="_Voz9XMiUNPfRl7ly0Tl-69" edge="1">
          <mxGeometry width="50" height="50" relative="1" as="geometry">
            <mxPoint x="-56.5000000000108" y="303.61" as="sourcePoint" />
            <mxPoint x="-26.5000000000108" y="233.61" as="targetPoint" />
            <Array as="points">
              <mxPoint x="12.5" y="288.61" />
              <mxPoint x="22.5" y="243.61" />
            </Array>
          </mxGeometry>
        </mxCell>
        <mxCell id="_Voz9XMiUNPfRl7ly0Tl-104" value="" style="curved=1;endArrow=none;html=1;rounded=0;endFill=0;dashed=1;entryX=1;entryY=0.5;entryDx=0;entryDy=0;exitX=1;exitY=0.5;exitDx=0;exitDy=0;" parent="1" source="_Voz9XMiUNPfRl7ly0Tl-58" target="_Voz9XMiUNPfRl7ly0Tl-70" edge="1">
          <mxGeometry width="50" height="50" relative="1" as="geometry">
            <mxPoint x="-37.96446609406712" y="320.074466094067" as="sourcePoint" />
            <mxPoint x="-6.5" y="253.61" as="targetPoint" />
            <Array as="points">
              <mxPoint x="-11.5" y="333.61" />
              <mxPoint x="12.5" y="318.61" />
              <mxPoint x="12.5" y="288.61" />
            </Array>
          </mxGeometry>
        </mxCell>
        <mxCell id="_Voz9XMiUNPfRl7ly0Tl-105" value="" style="curved=1;endArrow=none;html=1;rounded=0;endFill=0;dashed=1;entryX=1;entryY=0.5;entryDx=0;entryDy=0;exitX=1;exitY=0.5;exitDx=0;exitDy=0;" parent="1" source="_Voz9XMiUNPfRl7ly0Tl-56" target="_Voz9XMiUNPfRl7ly0Tl-68" edge="1">
          <mxGeometry width="50" height="50" relative="1" as="geometry">
            <mxPoint x="-26.5" y="343.61" as="sourcePoint" />
            <mxPoint x="3.5" y="273.61" as="targetPoint" />
            <Array as="points">
              <mxPoint x="-17.5" y="318.61" />
              <mxPoint x="2.5" y="298.61" />
            </Array>
          </mxGeometry>
        </mxCell>
        <mxCell id="_Voz9XMiUNPfRl7ly0Tl-108" value="" style="ellipse;whiteSpace=wrap;html=1;aspect=fixed;fillColor=none;" parent="1" vertex="1">
          <mxGeometry x="-582.5" y="660" width="70" height="70" as="geometry" />
        </mxCell>
        <mxCell id="_Voz9XMiUNPfRl7ly0Tl-109" value="" style="ellipse;whiteSpace=wrap;html=1;aspect=fixed;fillColor=#ffe6cc;strokeColor=#d79b00;" parent="1" vertex="1">
          <mxGeometry x="-562.5" y="687" width="10" height="10" as="geometry" />
        </mxCell>
        <mxCell id="_Voz9XMiUNPfRl7ly0Tl-110" value="" style="ellipse;whiteSpace=wrap;html=1;aspect=fixed;fillColor=#dae8fc;strokeColor=#6c8ebf;" parent="1" vertex="1">
          <mxGeometry x="-552.5" y="667" width="10" height="10" as="geometry" />
        </mxCell>
        <mxCell id="_Voz9XMiUNPfRl7ly0Tl-111" value="" style="ellipse;whiteSpace=wrap;html=1;aspect=fixed;fillColor=#e1d5e7;strokeColor=#9673a6;" parent="1" vertex="1">
          <mxGeometry x="-552.5" y="707" width="10" height="10" as="geometry" />
        </mxCell>
        <mxCell id="_Voz9XMiUNPfRl7ly0Tl-112" value="" style="ellipse;whiteSpace=wrap;html=1;aspect=fixed;fillColor=#d5e8d4;strokeColor=#82b366;" parent="1" vertex="1">
          <mxGeometry x="-542.5" y="687" width="10" height="10" as="geometry" />
        </mxCell>
        <mxCell id="_Voz9XMiUNPfRl7ly0Tl-113" value="" style="ellipse;whiteSpace=wrap;html=1;aspect=fixed;fillColor=#f8cecc;strokeColor=#b85450;" parent="1" vertex="1">
          <mxGeometry x="-532.5" y="707" width="10" height="10" as="geometry" />
        </mxCell>
        <mxCell id="_Voz9XMiUNPfRl7ly0Tl-114" value="" style="ellipse;whiteSpace=wrap;html=1;aspect=fixed;fillColor=#fff2cc;strokeColor=#d6b656;" parent="1" vertex="1">
          <mxGeometry x="-572.5" y="707" width="10" height="10" as="geometry" />
        </mxCell>
        <mxCell id="_Voz9XMiUNPfRl7ly0Tl-115" value="" style="endArrow=none;html=1;rounded=0;entryX=0;entryY=1;entryDx=0;entryDy=0;exitX=0.5;exitY=0;exitDx=0;exitDy=0;" parent="1" source="_Voz9XMiUNPfRl7ly0Tl-109" target="_Voz9XMiUNPfRl7ly0Tl-110" edge="1">
          <mxGeometry width="50" height="50" relative="1" as="geometry">
            <mxPoint x="-642.5" y="707" as="sourcePoint" />
            <mxPoint x="-592.5" y="657" as="targetPoint" />
          </mxGeometry>
        </mxCell>
        <mxCell id="_Voz9XMiUNPfRl7ly0Tl-116" value="" style="endArrow=none;html=1;rounded=0;exitX=0.5;exitY=0;exitDx=0;exitDy=0;entryX=1;entryY=1;entryDx=0;entryDy=0;" parent="1" source="_Voz9XMiUNPfRl7ly0Tl-112" target="_Voz9XMiUNPfRl7ly0Tl-110" edge="1">
          <mxGeometry width="50" height="50" relative="1" as="geometry">
            <mxPoint x="-642.5" y="707" as="sourcePoint" />
            <mxPoint x="-532.5" y="677" as="targetPoint" />
          </mxGeometry>
        </mxCell>
        <mxCell id="_Voz9XMiUNPfRl7ly0Tl-117" value="" style="endArrow=none;html=1;rounded=0;entryX=0;entryY=1;entryDx=0;entryDy=0;exitX=0.5;exitY=0;exitDx=0;exitDy=0;" parent="1" source="_Voz9XMiUNPfRl7ly0Tl-114" target="_Voz9XMiUNPfRl7ly0Tl-109" edge="1">
          <mxGeometry width="50" height="50" relative="1" as="geometry">
            <mxPoint x="-568.5" y="706" as="sourcePoint" />
            <mxPoint x="-562.5" y="695" as="targetPoint" />
          </mxGeometry>
        </mxCell>
        <mxCell id="_Voz9XMiUNPfRl7ly0Tl-118" value="" style="endArrow=none;html=1;rounded=0;exitX=0.5;exitY=0;exitDx=0;exitDy=0;entryX=1;entryY=1;entryDx=0;entryDy=0;" parent="1" source="_Voz9XMiUNPfRl7ly0Tl-111" target="_Voz9XMiUNPfRl7ly0Tl-109" edge="1">
          <mxGeometry width="50" height="50" relative="1" as="geometry">
            <mxPoint x="-527.5" y="697" as="sourcePoint" />
            <mxPoint x="-533.9644660940673" y="685.5355339059327" as="targetPoint" />
          </mxGeometry>
        </mxCell>
        <mxCell id="_Voz9XMiUNPfRl7ly0Tl-119" value="" style="endArrow=none;html=1;rounded=0;exitX=0.5;exitY=0;exitDx=0;exitDy=0;entryX=1;entryY=1;entryDx=0;entryDy=0;" parent="1" source="_Voz9XMiUNPfRl7ly0Tl-113" target="_Voz9XMiUNPfRl7ly0Tl-112" edge="1">
          <mxGeometry width="50" height="50" relative="1" as="geometry">
            <mxPoint x="-537.5" y="717" as="sourcePoint" />
            <mxPoint x="-543.9644660940673" y="705.5355339059327" as="targetPoint" />
          </mxGeometry>
        </mxCell>
        <mxCell id="_Voz9XMiUNPfRl7ly0Tl-120" value="" style="ellipse;whiteSpace=wrap;html=1;aspect=fixed;fillColor=none;" parent="1" vertex="1">
          <mxGeometry x="-446.61" y="660" width="70" height="70" as="geometry" />
        </mxCell>
        <mxCell id="_Voz9XMiUNPfRl7ly0Tl-121" value="" style="ellipse;whiteSpace=wrap;html=1;aspect=fixed;fillColor=#ffe6cc;strokeColor=#d79b00;" parent="1" vertex="1">
          <mxGeometry x="-426.61" y="687" width="10" height="10" as="geometry" />
        </mxCell>
        <mxCell id="_Voz9XMiUNPfRl7ly0Tl-122" value="" style="ellipse;whiteSpace=wrap;html=1;aspect=fixed;fillColor=#dae8fc;strokeColor=#6c8ebf;" parent="1" vertex="1">
          <mxGeometry x="-416.61" y="667" width="10" height="10" as="geometry" />
        </mxCell>
        <mxCell id="_Voz9XMiUNPfRl7ly0Tl-123" value="" style="ellipse;whiteSpace=wrap;html=1;aspect=fixed;fillColor=#e1d5e7;strokeColor=#9673a6;" parent="1" vertex="1">
          <mxGeometry x="-416.61" y="707" width="10" height="10" as="geometry" />
        </mxCell>
        <mxCell id="_Voz9XMiUNPfRl7ly0Tl-124" value="" style="ellipse;whiteSpace=wrap;html=1;aspect=fixed;fillColor=#d5e8d4;strokeColor=#82b366;" parent="1" vertex="1">
          <mxGeometry x="-406.61" y="687" width="10" height="10" as="geometry" />
        </mxCell>
        <mxCell id="_Voz9XMiUNPfRl7ly0Tl-125" value="" style="ellipse;whiteSpace=wrap;html=1;aspect=fixed;fillColor=#f8cecc;strokeColor=#b85450;" parent="1" vertex="1">
          <mxGeometry x="-396.61" y="707" width="10" height="10" as="geometry" />
        </mxCell>
        <mxCell id="_Voz9XMiUNPfRl7ly0Tl-126" value="" style="ellipse;whiteSpace=wrap;html=1;aspect=fixed;fillColor=#fff2cc;strokeColor=#d6b656;" parent="1" vertex="1">
          <mxGeometry x="-436.61" y="707" width="10" height="10" as="geometry" />
        </mxCell>
        <mxCell id="_Voz9XMiUNPfRl7ly0Tl-127" value="" style="endArrow=none;html=1;rounded=0;entryX=0;entryY=1;entryDx=0;entryDy=0;exitX=0.5;exitY=0;exitDx=0;exitDy=0;" parent="1" source="_Voz9XMiUNPfRl7ly0Tl-121" target="_Voz9XMiUNPfRl7ly0Tl-122" edge="1">
          <mxGeometry width="50" height="50" relative="1" as="geometry">
            <mxPoint x="-506.61" y="707" as="sourcePoint" />
            <mxPoint x="-456.61" y="657" as="targetPoint" />
          </mxGeometry>
        </mxCell>
        <mxCell id="_Voz9XMiUNPfRl7ly0Tl-128" value="" style="endArrow=none;html=1;rounded=0;exitX=0.5;exitY=0;exitDx=0;exitDy=0;entryX=1;entryY=1;entryDx=0;entryDy=0;" parent="1" source="_Voz9XMiUNPfRl7ly0Tl-124" target="_Voz9XMiUNPfRl7ly0Tl-122" edge="1">
          <mxGeometry width="50" height="50" relative="1" as="geometry">
            <mxPoint x="-506.61" y="707" as="sourcePoint" />
            <mxPoint x="-396.61" y="677" as="targetPoint" />
          </mxGeometry>
        </mxCell>
        <mxCell id="_Voz9XMiUNPfRl7ly0Tl-129" value="" style="endArrow=none;html=1;rounded=0;entryX=0;entryY=1;entryDx=0;entryDy=0;exitX=0.5;exitY=0;exitDx=0;exitDy=0;" parent="1" source="_Voz9XMiUNPfRl7ly0Tl-126" target="_Voz9XMiUNPfRl7ly0Tl-121" edge="1">
          <mxGeometry width="50" height="50" relative="1" as="geometry">
            <mxPoint x="-432.61" y="706" as="sourcePoint" />
            <mxPoint x="-426.61" y="695" as="targetPoint" />
          </mxGeometry>
        </mxCell>
        <mxCell id="_Voz9XMiUNPfRl7ly0Tl-130" value="" style="endArrow=none;html=1;rounded=0;exitX=0.5;exitY=0;exitDx=0;exitDy=0;entryX=1;entryY=1;entryDx=0;entryDy=0;" parent="1" source="_Voz9XMiUNPfRl7ly0Tl-123" target="_Voz9XMiUNPfRl7ly0Tl-121" edge="1">
          <mxGeometry width="50" height="50" relative="1" as="geometry">
            <mxPoint x="-391.61" y="697" as="sourcePoint" />
            <mxPoint x="-398.07446609406736" y="685.5355339059327" as="targetPoint" />
          </mxGeometry>
        </mxCell>
        <mxCell id="_Voz9XMiUNPfRl7ly0Tl-131" value="" style="endArrow=none;html=1;rounded=0;exitX=0.5;exitY=0;exitDx=0;exitDy=0;entryX=1;entryY=1;entryDx=0;entryDy=0;" parent="1" source="_Voz9XMiUNPfRl7ly0Tl-125" target="_Voz9XMiUNPfRl7ly0Tl-124" edge="1">
          <mxGeometry width="50" height="50" relative="1" as="geometry">
            <mxPoint x="-401.61" y="717" as="sourcePoint" />
            <mxPoint x="-408.07446609406736" y="705.5355339059327" as="targetPoint" />
          </mxGeometry>
        </mxCell>
        <mxCell id="_Voz9XMiUNPfRl7ly0Tl-132" value="" style="ellipse;whiteSpace=wrap;html=1;aspect=fixed;fillColor=none;" parent="1" vertex="1">
          <mxGeometry x="-314.5" y="660" width="70" height="70" as="geometry" />
        </mxCell>
        <mxCell id="_Voz9XMiUNPfRl7ly0Tl-133" value="" style="ellipse;whiteSpace=wrap;html=1;aspect=fixed;fillColor=#ffe6cc;strokeColor=#d79b00;" parent="1" vertex="1">
          <mxGeometry x="-294.5" y="687" width="10" height="10" as="geometry" />
        </mxCell>
        <mxCell id="_Voz9XMiUNPfRl7ly0Tl-134" value="" style="ellipse;whiteSpace=wrap;html=1;aspect=fixed;fillColor=#dae8fc;strokeColor=#6c8ebf;" parent="1" vertex="1">
          <mxGeometry x="-284.5" y="667" width="10" height="10" as="geometry" />
        </mxCell>
        <mxCell id="_Voz9XMiUNPfRl7ly0Tl-135" value="" style="ellipse;whiteSpace=wrap;html=1;aspect=fixed;fillColor=#e1d5e7;strokeColor=#9673a6;" parent="1" vertex="1">
          <mxGeometry x="-284.5" y="707" width="10" height="10" as="geometry" />
        </mxCell>
        <mxCell id="_Voz9XMiUNPfRl7ly0Tl-136" value="" style="ellipse;whiteSpace=wrap;html=1;aspect=fixed;fillColor=#d5e8d4;strokeColor=#82b366;" parent="1" vertex="1">
          <mxGeometry x="-274.5" y="687" width="10" height="10" as="geometry" />
        </mxCell>
        <mxCell id="_Voz9XMiUNPfRl7ly0Tl-137" value="" style="ellipse;whiteSpace=wrap;html=1;aspect=fixed;fillColor=#f8cecc;strokeColor=#b85450;" parent="1" vertex="1">
          <mxGeometry x="-264.5" y="707" width="10" height="10" as="geometry" />
        </mxCell>
        <mxCell id="_Voz9XMiUNPfRl7ly0Tl-138" value="" style="ellipse;whiteSpace=wrap;html=1;aspect=fixed;fillColor=#fff2cc;strokeColor=#d6b656;" parent="1" vertex="1">
          <mxGeometry x="-304.5" y="707" width="10" height="10" as="geometry" />
        </mxCell>
        <mxCell id="_Voz9XMiUNPfRl7ly0Tl-139" value="" style="endArrow=none;html=1;rounded=0;entryX=0;entryY=1;entryDx=0;entryDy=0;exitX=0.5;exitY=0;exitDx=0;exitDy=0;" parent="1" source="_Voz9XMiUNPfRl7ly0Tl-133" target="_Voz9XMiUNPfRl7ly0Tl-134" edge="1">
          <mxGeometry width="50" height="50" relative="1" as="geometry">
            <mxPoint x="-374.5" y="707" as="sourcePoint" />
            <mxPoint x="-324.5" y="657" as="targetPoint" />
          </mxGeometry>
        </mxCell>
        <mxCell id="_Voz9XMiUNPfRl7ly0Tl-140" value="" style="endArrow=none;html=1;rounded=0;exitX=0.5;exitY=0;exitDx=0;exitDy=0;entryX=1;entryY=1;entryDx=0;entryDy=0;" parent="1" source="_Voz9XMiUNPfRl7ly0Tl-136" target="_Voz9XMiUNPfRl7ly0Tl-134" edge="1">
          <mxGeometry width="50" height="50" relative="1" as="geometry">
            <mxPoint x="-374.5" y="707" as="sourcePoint" />
            <mxPoint x="-264.5" y="677" as="targetPoint" />
          </mxGeometry>
        </mxCell>
        <mxCell id="_Voz9XMiUNPfRl7ly0Tl-141" value="" style="endArrow=none;html=1;rounded=0;entryX=0;entryY=1;entryDx=0;entryDy=0;exitX=0.5;exitY=0;exitDx=0;exitDy=0;" parent="1" source="_Voz9XMiUNPfRl7ly0Tl-138" target="_Voz9XMiUNPfRl7ly0Tl-133" edge="1">
          <mxGeometry width="50" height="50" relative="1" as="geometry">
            <mxPoint x="-300.5" y="706" as="sourcePoint" />
            <mxPoint x="-294.5" y="695" as="targetPoint" />
          </mxGeometry>
        </mxCell>
        <mxCell id="_Voz9XMiUNPfRl7ly0Tl-142" value="" style="endArrow=none;html=1;rounded=0;exitX=0.5;exitY=0;exitDx=0;exitDy=0;entryX=1;entryY=1;entryDx=0;entryDy=0;" parent="1" source="_Voz9XMiUNPfRl7ly0Tl-135" target="_Voz9XMiUNPfRl7ly0Tl-133" edge="1">
          <mxGeometry width="50" height="50" relative="1" as="geometry">
            <mxPoint x="-259.5" y="697" as="sourcePoint" />
            <mxPoint x="-265.96446609406735" y="685.5355339059327" as="targetPoint" />
          </mxGeometry>
        </mxCell>
        <mxCell id="_Voz9XMiUNPfRl7ly0Tl-143" value="" style="endArrow=none;html=1;rounded=0;exitX=0.5;exitY=0;exitDx=0;exitDy=0;entryX=1;entryY=1;entryDx=0;entryDy=0;" parent="1" source="_Voz9XMiUNPfRl7ly0Tl-137" target="_Voz9XMiUNPfRl7ly0Tl-136" edge="1">
          <mxGeometry width="50" height="50" relative="1" as="geometry">
            <mxPoint x="-269.5" y="717" as="sourcePoint" />
            <mxPoint x="-275.96446609406735" y="705.5355339059327" as="targetPoint" />
          </mxGeometry>
        </mxCell>
        <mxCell id="_Voz9XMiUNPfRl7ly0Tl-144" value="" style="ellipse;whiteSpace=wrap;html=1;aspect=fixed;fillColor=none;" parent="1" vertex="1">
          <mxGeometry x="-184.5" y="660" width="70" height="70" as="geometry" />
        </mxCell>
        <mxCell id="_Voz9XMiUNPfRl7ly0Tl-145" value="" style="ellipse;whiteSpace=wrap;html=1;aspect=fixed;fillColor=#ffe6cc;strokeColor=#d79b00;" parent="1" vertex="1">
          <mxGeometry x="-164.5" y="687" width="10" height="10" as="geometry" />
        </mxCell>
        <mxCell id="_Voz9XMiUNPfRl7ly0Tl-146" value="" style="ellipse;whiteSpace=wrap;html=1;aspect=fixed;fillColor=#dae8fc;strokeColor=#6c8ebf;" parent="1" vertex="1">
          <mxGeometry x="-154.5" y="667" width="10" height="10" as="geometry" />
        </mxCell>
        <mxCell id="_Voz9XMiUNPfRl7ly0Tl-147" value="" style="ellipse;whiteSpace=wrap;html=1;aspect=fixed;fillColor=#e1d5e7;strokeColor=#9673a6;" parent="1" vertex="1">
          <mxGeometry x="-154.5" y="707" width="10" height="10" as="geometry" />
        </mxCell>
        <mxCell id="_Voz9XMiUNPfRl7ly0Tl-148" value="" style="ellipse;whiteSpace=wrap;html=1;aspect=fixed;fillColor=#d5e8d4;strokeColor=#82b366;" parent="1" vertex="1">
          <mxGeometry x="-144.5" y="687" width="10" height="10" as="geometry" />
        </mxCell>
        <mxCell id="_Voz9XMiUNPfRl7ly0Tl-149" value="" style="ellipse;whiteSpace=wrap;html=1;aspect=fixed;fillColor=#f8cecc;strokeColor=#b85450;" parent="1" vertex="1">
          <mxGeometry x="-134.5" y="707" width="10" height="10" as="geometry" />
        </mxCell>
        <mxCell id="_Voz9XMiUNPfRl7ly0Tl-150" value="" style="ellipse;whiteSpace=wrap;html=1;aspect=fixed;fillColor=#fff2cc;strokeColor=#d6b656;" parent="1" vertex="1">
          <mxGeometry x="-174.5" y="707" width="10" height="10" as="geometry" />
        </mxCell>
        <mxCell id="_Voz9XMiUNPfRl7ly0Tl-151" value="" style="endArrow=none;html=1;rounded=0;entryX=0;entryY=1;entryDx=0;entryDy=0;exitX=0.5;exitY=0;exitDx=0;exitDy=0;" parent="1" source="_Voz9XMiUNPfRl7ly0Tl-145" target="_Voz9XMiUNPfRl7ly0Tl-146" edge="1">
          <mxGeometry width="50" height="50" relative="1" as="geometry">
            <mxPoint x="-244.5" y="707" as="sourcePoint" />
            <mxPoint x="-194.5" y="657" as="targetPoint" />
          </mxGeometry>
        </mxCell>
        <mxCell id="_Voz9XMiUNPfRl7ly0Tl-152" value="" style="endArrow=none;html=1;rounded=0;exitX=0.5;exitY=0;exitDx=0;exitDy=0;entryX=1;entryY=1;entryDx=0;entryDy=0;" parent="1" source="_Voz9XMiUNPfRl7ly0Tl-148" target="_Voz9XMiUNPfRl7ly0Tl-146" edge="1">
          <mxGeometry width="50" height="50" relative="1" as="geometry">
            <mxPoint x="-244.5" y="707" as="sourcePoint" />
            <mxPoint x="-134.5" y="677" as="targetPoint" />
          </mxGeometry>
        </mxCell>
        <mxCell id="_Voz9XMiUNPfRl7ly0Tl-153" value="" style="endArrow=none;html=1;rounded=0;entryX=0;entryY=1;entryDx=0;entryDy=0;exitX=0.5;exitY=0;exitDx=0;exitDy=0;" parent="1" source="_Voz9XMiUNPfRl7ly0Tl-150" target="_Voz9XMiUNPfRl7ly0Tl-145" edge="1">
          <mxGeometry width="50" height="50" relative="1" as="geometry">
            <mxPoint x="-170.5" y="706" as="sourcePoint" />
            <mxPoint x="-164.5" y="695" as="targetPoint" />
          </mxGeometry>
        </mxCell>
        <mxCell id="_Voz9XMiUNPfRl7ly0Tl-154" value="" style="endArrow=none;html=1;rounded=0;exitX=0.5;exitY=0;exitDx=0;exitDy=0;entryX=1;entryY=1;entryDx=0;entryDy=0;" parent="1" source="_Voz9XMiUNPfRl7ly0Tl-147" target="_Voz9XMiUNPfRl7ly0Tl-145" edge="1">
          <mxGeometry width="50" height="50" relative="1" as="geometry">
            <mxPoint x="-129.5" y="697" as="sourcePoint" />
            <mxPoint x="-135.96446609406735" y="685.5355339059327" as="targetPoint" />
          </mxGeometry>
        </mxCell>
        <mxCell id="_Voz9XMiUNPfRl7ly0Tl-155" value="" style="endArrow=none;html=1;rounded=0;exitX=0.5;exitY=0;exitDx=0;exitDy=0;entryX=1;entryY=1;entryDx=0;entryDy=0;" parent="1" source="_Voz9XMiUNPfRl7ly0Tl-149" target="_Voz9XMiUNPfRl7ly0Tl-148" edge="1">
          <mxGeometry width="50" height="50" relative="1" as="geometry">
            <mxPoint x="-139.5" y="717" as="sourcePoint" />
            <mxPoint x="-145.96446609406735" y="705.5355339059327" as="targetPoint" />
          </mxGeometry>
        </mxCell>
        <mxCell id="_Voz9XMiUNPfRl7ly0Tl-156" value="&lt;font style=&quot;font-size: 13px;&quot;&gt;&lt;b style=&quot;font-size: 13px;&quot;&gt;领域本体&lt;/b&gt;&lt;/font&gt;" style="rounded=0;whiteSpace=wrap;html=1;fontSize=13;fontColor=#000000;strokeColor=#000000;fillColor=none;verticalAlign=bottom;align=right;" parent="1" vertex="1">
          <mxGeometry x="-629" y="640" width="650" height="120" as="geometry" />
        </mxCell>
        <mxCell id="_Voz9XMiUNPfRl7ly0Tl-157" value="" style="shape=singleArrow;whiteSpace=wrap;html=1;fontSize=14;fontColor=#FFFFFF;strokeColor=#6585B3;fillColor=none;" parent="1" vertex="1">
          <mxGeometry x="-506.5" y="677" width="50" height="40" as="geometry" />
        </mxCell>
        <mxCell id="_Voz9XMiUNPfRl7ly0Tl-158" value="" style="shape=singleArrow;whiteSpace=wrap;html=1;fontSize=14;fontColor=#FFFFFF;strokeColor=#6585B3;fillColor=none;" parent="1" vertex="1">
          <mxGeometry x="-371.5" y="677" width="50" height="40" as="geometry" />
        </mxCell>
        <mxCell id="_Voz9XMiUNPfRl7ly0Tl-159" value="" style="shape=singleArrow;whiteSpace=wrap;html=1;fontSize=14;fontColor=#FFFFFF;strokeColor=#6585B3;fillColor=none;" parent="1" vertex="1">
          <mxGeometry x="-237.5" y="677" width="50" height="40" as="geometry" />
        </mxCell>
        <mxCell id="_Voz9XMiUNPfRl7ly0Tl-160" value="&lt;font color=&quot;#000000&quot;&gt;计划&lt;/font&gt;" style="text;html=1;strokeColor=none;fillColor=none;align=center;verticalAlign=middle;whiteSpace=wrap;rounded=0;fontSize=14;fontColor=#FFFFFF;" parent="1" vertex="1">
          <mxGeometry x="-577.5" y="740" width="60" height="10" as="geometry" />
        </mxCell>
        <mxCell id="_Voz9XMiUNPfRl7ly0Tl-161" value="&lt;font color=&quot;#000000&quot;&gt;设计&lt;/font&gt;" style="text;html=1;strokeColor=none;fillColor=none;align=center;verticalAlign=middle;whiteSpace=wrap;rounded=0;fontSize=14;fontColor=#FFFFFF;" parent="1" vertex="1">
          <mxGeometry x="-441.61" y="740" width="60" height="10" as="geometry" />
        </mxCell>
        <mxCell id="_Voz9XMiUNPfRl7ly0Tl-162" value="&lt;font color=&quot;#000000&quot;&gt;工艺&lt;/font&gt;" style="text;html=1;strokeColor=none;fillColor=none;align=center;verticalAlign=middle;whiteSpace=wrap;rounded=0;fontSize=14;fontColor=#FFFFFF;" parent="1" vertex="1">
          <mxGeometry x="-304.5" y="740" width="60" height="10" as="geometry" />
        </mxCell>
        <mxCell id="_Voz9XMiUNPfRl7ly0Tl-163" value="&lt;font color=&quot;#000000&quot;&gt;制造&lt;/font&gt;" style="text;html=1;strokeColor=none;fillColor=none;align=center;verticalAlign=middle;whiteSpace=wrap;rounded=0;fontSize=14;fontColor=#FFFFFF;" parent="1" vertex="1">
          <mxGeometry x="-179.5" y="740" width="60" height="10" as="geometry" />
        </mxCell>
        <mxCell id="_Voz9XMiUNPfRl7ly0Tl-164" value="&lt;font color=&quot;#000000&quot; size=&quot;1&quot;&gt;&lt;b style=&quot;font-size: 16px&quot;&gt;......&lt;/b&gt;&lt;/font&gt;" style="text;html=1;strokeColor=none;fillColor=none;align=center;verticalAlign=middle;whiteSpace=wrap;rounded=0;fontSize=14;fontColor=#FFFFFF;" parent="1" vertex="1">
          <mxGeometry x="-96.5" y="687" width="60" height="10" as="geometry" />
        </mxCell>
        <mxCell id="_Voz9XMiUNPfRl7ly0Tl-165" value="" style="ellipse;whiteSpace=wrap;html=1;aspect=fixed;fillColor=none;" parent="1" vertex="1">
          <mxGeometry x="-795" y="170.61" width="70" height="70" as="geometry" />
        </mxCell>
        <mxCell id="_Voz9XMiUNPfRl7ly0Tl-166" value="" style="ellipse;whiteSpace=wrap;html=1;aspect=fixed;fillColor=#ffe6cc;strokeColor=#d79b00;" parent="1" vertex="1">
          <mxGeometry x="-775" y="197.61" width="10" height="10" as="geometry" />
        </mxCell>
        <mxCell id="_Voz9XMiUNPfRl7ly0Tl-167" value="" style="ellipse;whiteSpace=wrap;html=1;aspect=fixed;fillColor=#dae8fc;strokeColor=#6c8ebf;" parent="1" vertex="1">
          <mxGeometry x="-765" y="177.61" width="10" height="10" as="geometry" />
        </mxCell>
        <mxCell id="_Voz9XMiUNPfRl7ly0Tl-168" value="" style="ellipse;whiteSpace=wrap;html=1;aspect=fixed;fillColor=#e1d5e7;strokeColor=#9673a6;" parent="1" vertex="1">
          <mxGeometry x="-765" y="217.61" width="10" height="10" as="geometry" />
        </mxCell>
        <mxCell id="_Voz9XMiUNPfRl7ly0Tl-169" value="" style="ellipse;whiteSpace=wrap;html=1;aspect=fixed;fillColor=#d5e8d4;strokeColor=#82b366;" parent="1" vertex="1">
          <mxGeometry x="-755" y="197.61" width="10" height="10" as="geometry" />
        </mxCell>
        <mxCell id="_Voz9XMiUNPfRl7ly0Tl-170" value="" style="ellipse;whiteSpace=wrap;html=1;aspect=fixed;fillColor=#f8cecc;strokeColor=#b85450;" parent="1" vertex="1">
          <mxGeometry x="-745" y="217.61" width="10" height="10" as="geometry" />
        </mxCell>
        <mxCell id="_Voz9XMiUNPfRl7ly0Tl-171" value="" style="ellipse;whiteSpace=wrap;html=1;aspect=fixed;fillColor=#fff2cc;strokeColor=#d6b656;" parent="1" vertex="1">
          <mxGeometry x="-785" y="217.61" width="10" height="10" as="geometry" />
        </mxCell>
        <mxCell id="_Voz9XMiUNPfRl7ly0Tl-172" value="" style="endArrow=none;html=1;rounded=0;entryX=0;entryY=1;entryDx=0;entryDy=0;exitX=0.5;exitY=0;exitDx=0;exitDy=0;" parent="1" source="_Voz9XMiUNPfRl7ly0Tl-166" target="_Voz9XMiUNPfRl7ly0Tl-167" edge="1">
          <mxGeometry width="50" height="50" relative="1" as="geometry">
            <mxPoint x="-855" y="217.61" as="sourcePoint" />
            <mxPoint x="-805" y="167.61" as="targetPoint" />
          </mxGeometry>
        </mxCell>
        <mxCell id="_Voz9XMiUNPfRl7ly0Tl-173" value="" style="endArrow=none;html=1;rounded=0;exitX=0.5;exitY=0;exitDx=0;exitDy=0;entryX=1;entryY=1;entryDx=0;entryDy=0;" parent="1" source="_Voz9XMiUNPfRl7ly0Tl-169" target="_Voz9XMiUNPfRl7ly0Tl-167" edge="1">
          <mxGeometry width="50" height="50" relative="1" as="geometry">
            <mxPoint x="-855" y="217.61" as="sourcePoint" />
            <mxPoint x="-745" y="187.61" as="targetPoint" />
          </mxGeometry>
        </mxCell>
        <mxCell id="_Voz9XMiUNPfRl7ly0Tl-174" value="" style="endArrow=none;html=1;rounded=0;entryX=0;entryY=1;entryDx=0;entryDy=0;exitX=0.5;exitY=0;exitDx=0;exitDy=0;" parent="1" source="_Voz9XMiUNPfRl7ly0Tl-171" target="_Voz9XMiUNPfRl7ly0Tl-166" edge="1">
          <mxGeometry width="50" height="50" relative="1" as="geometry">
            <mxPoint x="-781" y="216.61" as="sourcePoint" />
            <mxPoint x="-775" y="205.61" as="targetPoint" />
          </mxGeometry>
        </mxCell>
        <mxCell id="_Voz9XMiUNPfRl7ly0Tl-175" value="" style="endArrow=none;html=1;rounded=0;exitX=0.5;exitY=0;exitDx=0;exitDy=0;entryX=1;entryY=1;entryDx=0;entryDy=0;" parent="1" source="_Voz9XMiUNPfRl7ly0Tl-168" target="_Voz9XMiUNPfRl7ly0Tl-166" edge="1">
          <mxGeometry width="50" height="50" relative="1" as="geometry">
            <mxPoint x="-740" y="207.61" as="sourcePoint" />
            <mxPoint x="-746.4644660940673" y="196.14553390593267" as="targetPoint" />
          </mxGeometry>
        </mxCell>
        <mxCell id="_Voz9XMiUNPfRl7ly0Tl-176" value="" style="endArrow=none;html=1;rounded=0;exitX=0.5;exitY=0;exitDx=0;exitDy=0;entryX=1;entryY=1;entryDx=0;entryDy=0;" parent="1" source="_Voz9XMiUNPfRl7ly0Tl-170" target="_Voz9XMiUNPfRl7ly0Tl-169" edge="1">
          <mxGeometry width="50" height="50" relative="1" as="geometry">
            <mxPoint x="-750" y="227.61" as="sourcePoint" />
            <mxPoint x="-756.4644660940673" y="216.14553390593267" as="targetPoint" />
          </mxGeometry>
        </mxCell>
        <mxCell id="_Voz9XMiUNPfRl7ly0Tl-177" value="" style="ellipse;whiteSpace=wrap;html=1;aspect=fixed;fillColor=none;" parent="1" vertex="1">
          <mxGeometry x="-794.11" y="289.61" width="70" height="70" as="geometry" />
        </mxCell>
        <mxCell id="_Voz9XMiUNPfRl7ly0Tl-178" value="" style="ellipse;whiteSpace=wrap;html=1;aspect=fixed;fillColor=#ffe6cc;strokeColor=#d79b00;" parent="1" vertex="1">
          <mxGeometry x="-774.11" y="316.61" width="10" height="10" as="geometry" />
        </mxCell>
        <mxCell id="_Voz9XMiUNPfRl7ly0Tl-179" value="" style="ellipse;whiteSpace=wrap;html=1;aspect=fixed;fillColor=#dae8fc;strokeColor=#6c8ebf;" parent="1" vertex="1">
          <mxGeometry x="-764.11" y="296.61" width="10" height="10" as="geometry" />
        </mxCell>
        <mxCell id="_Voz9XMiUNPfRl7ly0Tl-180" value="" style="ellipse;whiteSpace=wrap;html=1;aspect=fixed;fillColor=#e1d5e7;strokeColor=#9673a6;" parent="1" vertex="1">
          <mxGeometry x="-764.11" y="336.61" width="10" height="10" as="geometry" />
        </mxCell>
        <mxCell id="_Voz9XMiUNPfRl7ly0Tl-181" value="" style="ellipse;whiteSpace=wrap;html=1;aspect=fixed;fillColor=#d5e8d4;strokeColor=#82b366;" parent="1" vertex="1">
          <mxGeometry x="-754.11" y="316.61" width="10" height="10" as="geometry" />
        </mxCell>
        <mxCell id="_Voz9XMiUNPfRl7ly0Tl-182" value="" style="ellipse;whiteSpace=wrap;html=1;aspect=fixed;fillColor=#f8cecc;strokeColor=#b85450;" parent="1" vertex="1">
          <mxGeometry x="-744.11" y="336.61" width="10" height="10" as="geometry" />
        </mxCell>
        <mxCell id="_Voz9XMiUNPfRl7ly0Tl-183" value="" style="ellipse;whiteSpace=wrap;html=1;aspect=fixed;fillColor=#fff2cc;strokeColor=#d6b656;" parent="1" vertex="1">
          <mxGeometry x="-784.11" y="336.61" width="10" height="10" as="geometry" />
        </mxCell>
        <mxCell id="_Voz9XMiUNPfRl7ly0Tl-184" value="" style="endArrow=none;html=1;rounded=0;entryX=0;entryY=1;entryDx=0;entryDy=0;exitX=0.5;exitY=0;exitDx=0;exitDy=0;" parent="1" source="_Voz9XMiUNPfRl7ly0Tl-178" target="_Voz9XMiUNPfRl7ly0Tl-179" edge="1">
          <mxGeometry width="50" height="50" relative="1" as="geometry">
            <mxPoint x="-854.11" y="336.61" as="sourcePoint" />
            <mxPoint x="-804.11" y="286.61" as="targetPoint" />
          </mxGeometry>
        </mxCell>
        <mxCell id="_Voz9XMiUNPfRl7ly0Tl-185" value="" style="endArrow=none;html=1;rounded=0;exitX=0.5;exitY=0;exitDx=0;exitDy=0;entryX=1;entryY=1;entryDx=0;entryDy=0;" parent="1" source="_Voz9XMiUNPfRl7ly0Tl-181" target="_Voz9XMiUNPfRl7ly0Tl-179" edge="1">
          <mxGeometry width="50" height="50" relative="1" as="geometry">
            <mxPoint x="-854.11" y="336.61" as="sourcePoint" />
            <mxPoint x="-744.11" y="306.61" as="targetPoint" />
          </mxGeometry>
        </mxCell>
        <mxCell id="_Voz9XMiUNPfRl7ly0Tl-186" value="" style="endArrow=none;html=1;rounded=0;entryX=0;entryY=1;entryDx=0;entryDy=0;exitX=0.5;exitY=0;exitDx=0;exitDy=0;" parent="1" source="_Voz9XMiUNPfRl7ly0Tl-183" target="_Voz9XMiUNPfRl7ly0Tl-178" edge="1">
          <mxGeometry width="50" height="50" relative="1" as="geometry">
            <mxPoint x="-780.11" y="335.61" as="sourcePoint" />
            <mxPoint x="-774.11" y="324.61" as="targetPoint" />
          </mxGeometry>
        </mxCell>
        <mxCell id="_Voz9XMiUNPfRl7ly0Tl-187" value="" style="endArrow=none;html=1;rounded=0;exitX=0.5;exitY=0;exitDx=0;exitDy=0;entryX=1;entryY=1;entryDx=0;entryDy=0;" parent="1" source="_Voz9XMiUNPfRl7ly0Tl-180" target="_Voz9XMiUNPfRl7ly0Tl-178" edge="1">
          <mxGeometry width="50" height="50" relative="1" as="geometry">
            <mxPoint x="-739.11" y="326.61" as="sourcePoint" />
            <mxPoint x="-745.5744660940674" y="315.14553390593267" as="targetPoint" />
          </mxGeometry>
        </mxCell>
        <mxCell id="_Voz9XMiUNPfRl7ly0Tl-188" value="" style="endArrow=none;html=1;rounded=0;exitX=0.5;exitY=0;exitDx=0;exitDy=0;entryX=1;entryY=1;entryDx=0;entryDy=0;" parent="1" source="_Voz9XMiUNPfRl7ly0Tl-182" target="_Voz9XMiUNPfRl7ly0Tl-181" edge="1">
          <mxGeometry width="50" height="50" relative="1" as="geometry">
            <mxPoint x="-749.11" y="346.61" as="sourcePoint" />
            <mxPoint x="-755.5744660940674" y="335.14553390593267" as="targetPoint" />
          </mxGeometry>
        </mxCell>
        <mxCell id="_Voz9XMiUNPfRl7ly0Tl-213" value="&lt;font style=&quot;font-size: 13px;&quot;&gt;&lt;b style=&quot;font-size: 13px;&quot;&gt;局部本体&lt;/b&gt;&lt;/font&gt;" style="rounded=0;whiteSpace=wrap;html=1;fontSize=13;fontColor=#000000;strokeColor=#000000;fillColor=none;verticalAlign=bottom;align=center;" parent="1" vertex="1">
          <mxGeometry x="-809" y="154.61" width="100" height="418.39" as="geometry" />
        </mxCell>
        <mxCell id="_Voz9XMiUNPfRl7ly0Tl-217" value="&lt;font color=&quot;#000000&quot;&gt;ERP&lt;/font&gt;" style="text;html=1;strokeColor=none;fillColor=none;align=center;verticalAlign=middle;whiteSpace=wrap;rounded=0;fontSize=14;fontColor=#FFFFFF;" parent="1" vertex="1">
          <mxGeometry x="-790" y="250.61" width="60" height="10" as="geometry" />
        </mxCell>
        <mxCell id="_Voz9XMiUNPfRl7ly0Tl-218" value="&lt;font color=&quot;#000000&quot;&gt;PLM&lt;/font&gt;" style="text;html=1;strokeColor=none;fillColor=none;align=center;verticalAlign=middle;whiteSpace=wrap;rounded=0;fontSize=14;fontColor=#FFFFFF;" parent="1" vertex="1">
          <mxGeometry x="-789.11" y="369.61" width="60" height="10" as="geometry" />
        </mxCell>
        <mxCell id="_Voz9XMiUNPfRl7ly0Tl-221" value="&lt;font color=&quot;#000000&quot; size=&quot;1&quot;&gt;&lt;b style=&quot;font-size: 16px&quot;&gt;......&lt;/b&gt;&lt;/font&gt;" style="text;html=1;strokeColor=none;fillColor=none;align=center;verticalAlign=middle;whiteSpace=wrap;rounded=0;fontSize=14;fontColor=#FFFFFF;rotation=90;" parent="1" vertex="1">
          <mxGeometry x="-790" y="523" width="60" height="10" as="geometry" />
        </mxCell>
        <mxCell id="_Voz9XMiUNPfRl7ly0Tl-222" value="" style="ellipse;whiteSpace=wrap;html=1;aspect=fixed;fillColor=none;" parent="1" vertex="1">
          <mxGeometry x="-795" y="402.61" width="70" height="70" as="geometry" />
        </mxCell>
        <mxCell id="_Voz9XMiUNPfRl7ly0Tl-223" value="" style="ellipse;whiteSpace=wrap;html=1;aspect=fixed;fillColor=#ffe6cc;strokeColor=#d79b00;" parent="1" vertex="1">
          <mxGeometry x="-775" y="429.61" width="10" height="10" as="geometry" />
        </mxCell>
        <mxCell id="_Voz9XMiUNPfRl7ly0Tl-224" value="" style="ellipse;whiteSpace=wrap;html=1;aspect=fixed;fillColor=#dae8fc;strokeColor=#6c8ebf;" parent="1" vertex="1">
          <mxGeometry x="-765" y="409.61" width="10" height="10" as="geometry" />
        </mxCell>
        <mxCell id="_Voz9XMiUNPfRl7ly0Tl-225" value="" style="ellipse;whiteSpace=wrap;html=1;aspect=fixed;fillColor=#e1d5e7;strokeColor=#9673a6;" parent="1" vertex="1">
          <mxGeometry x="-765" y="449.61" width="10" height="10" as="geometry" />
        </mxCell>
        <mxCell id="_Voz9XMiUNPfRl7ly0Tl-226" value="" style="ellipse;whiteSpace=wrap;html=1;aspect=fixed;fillColor=#d5e8d4;strokeColor=#82b366;" parent="1" vertex="1">
          <mxGeometry x="-755" y="429.61" width="10" height="10" as="geometry" />
        </mxCell>
        <mxCell id="_Voz9XMiUNPfRl7ly0Tl-227" value="" style="ellipse;whiteSpace=wrap;html=1;aspect=fixed;fillColor=#f8cecc;strokeColor=#b85450;" parent="1" vertex="1">
          <mxGeometry x="-745" y="449.61" width="10" height="10" as="geometry" />
        </mxCell>
        <mxCell id="_Voz9XMiUNPfRl7ly0Tl-228" value="" style="ellipse;whiteSpace=wrap;html=1;aspect=fixed;fillColor=#fff2cc;strokeColor=#d6b656;" parent="1" vertex="1">
          <mxGeometry x="-785" y="449.61" width="10" height="10" as="geometry" />
        </mxCell>
        <mxCell id="_Voz9XMiUNPfRl7ly0Tl-229" value="" style="endArrow=none;html=1;rounded=0;entryX=0;entryY=1;entryDx=0;entryDy=0;exitX=0.5;exitY=0;exitDx=0;exitDy=0;" parent="1" source="_Voz9XMiUNPfRl7ly0Tl-223" target="_Voz9XMiUNPfRl7ly0Tl-224" edge="1">
          <mxGeometry width="50" height="50" relative="1" as="geometry">
            <mxPoint x="-855" y="449.61" as="sourcePoint" />
            <mxPoint x="-805" y="399.61" as="targetPoint" />
          </mxGeometry>
        </mxCell>
        <mxCell id="_Voz9XMiUNPfRl7ly0Tl-230" value="" style="endArrow=none;html=1;rounded=0;exitX=0.5;exitY=0;exitDx=0;exitDy=0;entryX=1;entryY=1;entryDx=0;entryDy=0;" parent="1" source="_Voz9XMiUNPfRl7ly0Tl-226" target="_Voz9XMiUNPfRl7ly0Tl-224" edge="1">
          <mxGeometry width="50" height="50" relative="1" as="geometry">
            <mxPoint x="-855" y="449.61" as="sourcePoint" />
            <mxPoint x="-745" y="419.61" as="targetPoint" />
          </mxGeometry>
        </mxCell>
        <mxCell id="_Voz9XMiUNPfRl7ly0Tl-231" value="" style="endArrow=none;html=1;rounded=0;entryX=0;entryY=1;entryDx=0;entryDy=0;exitX=0.5;exitY=0;exitDx=0;exitDy=0;" parent="1" source="_Voz9XMiUNPfRl7ly0Tl-228" target="_Voz9XMiUNPfRl7ly0Tl-223" edge="1">
          <mxGeometry width="50" height="50" relative="1" as="geometry">
            <mxPoint x="-781" y="448.61" as="sourcePoint" />
            <mxPoint x="-775" y="437.61" as="targetPoint" />
          </mxGeometry>
        </mxCell>
        <mxCell id="_Voz9XMiUNPfRl7ly0Tl-232" value="" style="endArrow=none;html=1;rounded=0;exitX=0.5;exitY=0;exitDx=0;exitDy=0;entryX=1;entryY=1;entryDx=0;entryDy=0;" parent="1" source="_Voz9XMiUNPfRl7ly0Tl-225" target="_Voz9XMiUNPfRl7ly0Tl-223" edge="1">
          <mxGeometry width="50" height="50" relative="1" as="geometry">
            <mxPoint x="-740" y="439.61" as="sourcePoint" />
            <mxPoint x="-746.4644660940673" y="428.14553390593267" as="targetPoint" />
          </mxGeometry>
        </mxCell>
        <mxCell id="_Voz9XMiUNPfRl7ly0Tl-233" value="" style="endArrow=none;html=1;rounded=0;exitX=0.5;exitY=0;exitDx=0;exitDy=0;entryX=1;entryY=1;entryDx=0;entryDy=0;" parent="1" source="_Voz9XMiUNPfRl7ly0Tl-227" target="_Voz9XMiUNPfRl7ly0Tl-226" edge="1">
          <mxGeometry width="50" height="50" relative="1" as="geometry">
            <mxPoint x="-750" y="459.61" as="sourcePoint" />
            <mxPoint x="-756.4644660940673" y="448.14553390593267" as="targetPoint" />
          </mxGeometry>
        </mxCell>
        <mxCell id="_Voz9XMiUNPfRl7ly0Tl-246" value="&lt;font color=&quot;#000000&quot;&gt;CAD/CAM&lt;/font&gt;" style="text;html=1;strokeColor=none;fillColor=none;align=center;verticalAlign=middle;whiteSpace=wrap;rounded=0;fontSize=14;fontColor=#FFFFFF;" parent="1" vertex="1">
          <mxGeometry x="-790" y="482.61" width="60" height="10" as="geometry" />
        </mxCell>
        <mxCell id="_Voz9XMiUNPfRl7ly0Tl-248" value="" style="ellipse;whiteSpace=wrap;html=1;aspect=fixed;fillColor=none;dashed=1;" parent="1" vertex="1">
          <mxGeometry x="-378.5" y="446.22" width="89.78" height="89.78" as="geometry" />
        </mxCell>
        <mxCell id="_Voz9XMiUNPfRl7ly0Tl-249" value="" style="ellipse;whiteSpace=wrap;html=1;aspect=fixed;fillColor=#ffe6cc;strokeColor=#d79b00;" parent="1" vertex="1">
          <mxGeometry x="-376.5" y="499.61" width="16.39" height="16.39" as="geometry" />
        </mxCell>
        <mxCell id="_Voz9XMiUNPfRl7ly0Tl-250" value="" style="ellipse;whiteSpace=wrap;html=1;aspect=fixed;fillColor=#dae8fc;strokeColor=#6c8ebf;" parent="1" vertex="1">
          <mxGeometry x="-351.28" y="460.44" width="16.39" height="16.39" as="geometry" />
        </mxCell>
        <mxCell id="_Voz9XMiUNPfRl7ly0Tl-252" value="" style="ellipse;whiteSpace=wrap;html=1;aspect=fixed;fillColor=#d5e8d4;strokeColor=#82b366;" parent="1" vertex="1">
          <mxGeometry x="-307" y="476.83000000000004" width="16.39" height="16.39" as="geometry" />
        </mxCell>
        <mxCell id="_Voz9XMiUNPfRl7ly0Tl-253" value="" style="ellipse;whiteSpace=wrap;html=1;aspect=fixed;fillColor=#f8cecc;strokeColor=#b85450;" parent="1" vertex="1">
          <mxGeometry x="-343.89" y="493.22" width="16.39" height="16.39" as="geometry" />
        </mxCell>
        <mxCell id="_Voz9XMiUNPfRl7ly0Tl-254" value="" style="ellipse;whiteSpace=wrap;html=1;aspect=fixed;fillColor=#fff2cc;strokeColor=#d6b656;" parent="1" vertex="1">
          <mxGeometry x="-343.89" y="543.22" width="16.39" height="16.39" as="geometry" />
        </mxCell>
        <mxCell id="_Voz9XMiUNPfRl7ly0Tl-255" value="" style="endArrow=none;html=1;rounded=0;entryX=0;entryY=1;entryDx=0;entryDy=0;exitX=0.5;exitY=0;exitDx=0;exitDy=0;" parent="1" source="_Voz9XMiUNPfRl7ly0Tl-249" target="_Voz9XMiUNPfRl7ly0Tl-250" edge="1">
          <mxGeometry width="50" height="50" relative="1" as="geometry">
            <mxPoint x="-436" y="509.61" as="sourcePoint" />
            <mxPoint x="-386" y="459.61" as="targetPoint" />
          </mxGeometry>
        </mxCell>
        <mxCell id="_Voz9XMiUNPfRl7ly0Tl-256" value="" style="endArrow=none;html=1;rounded=0;exitX=0;exitY=0.5;exitDx=0;exitDy=0;entryX=1;entryY=1;entryDx=0;entryDy=0;" parent="1" source="_Voz9XMiUNPfRl7ly0Tl-252" target="_Voz9XMiUNPfRl7ly0Tl-250" edge="1">
          <mxGeometry width="50" height="50" relative="1" as="geometry">
            <mxPoint x="-436" y="509.61" as="sourcePoint" />
            <mxPoint x="-326" y="479.61" as="targetPoint" />
          </mxGeometry>
        </mxCell>
        <mxCell id="_Voz9XMiUNPfRl7ly0Tl-257" value="" style="endArrow=none;html=1;rounded=0;entryX=0.5;entryY=1;entryDx=0;entryDy=0;exitX=0.5;exitY=0;exitDx=0;exitDy=0;" parent="1" source="_Voz9XMiUNPfRl7ly0Tl-254" target="_Voz9XMiUNPfRl7ly0Tl-249" edge="1">
          <mxGeometry width="50" height="50" relative="1" as="geometry">
            <mxPoint x="-362" y="508.61" as="sourcePoint" />
            <mxPoint x="-356" y="497.61" as="targetPoint" />
          </mxGeometry>
        </mxCell>
        <mxCell id="_Voz9XMiUNPfRl7ly0Tl-259" value="" style="endArrow=none;html=1;rounded=0;exitX=1;exitY=0;exitDx=0;exitDy=0;entryX=0;entryY=1;entryDx=0;entryDy=0;" parent="1" source="_Voz9XMiUNPfRl7ly0Tl-253" target="_Voz9XMiUNPfRl7ly0Tl-252" edge="1">
          <mxGeometry width="50" height="50" relative="1" as="geometry">
            <mxPoint x="-331" y="519.61" as="sourcePoint" />
            <mxPoint x="-307" y="485" as="targetPoint" />
          </mxGeometry>
        </mxCell>
        <mxCell id="_Voz9XMiUNPfRl7ly0Tl-261" value="" style="ellipse;whiteSpace=wrap;html=1;aspect=fixed;fillColor=#ffe6cc;strokeColor=#d79b00;" parent="1" vertex="1">
          <mxGeometry x="-321.89" y="519.61" width="16.39" height="16.39" as="geometry" />
        </mxCell>
        <mxCell id="_Voz9XMiUNPfRl7ly0Tl-262" value="" style="ellipse;whiteSpace=wrap;html=1;aspect=fixed;fillColor=#dae8fc;strokeColor=#6c8ebf;" parent="1" vertex="1">
          <mxGeometry x="-288.72" y="534" width="16.39" height="16.39" as="geometry" />
        </mxCell>
        <mxCell id="_Voz9XMiUNPfRl7ly0Tl-263" value="" style="ellipse;whiteSpace=wrap;html=1;aspect=fixed;fillColor=#d5e8d4;strokeColor=#82b366;" parent="1" vertex="1">
          <mxGeometry x="-326.39" y="576" width="16.39" height="16.39" as="geometry" />
        </mxCell>
        <mxCell id="_Voz9XMiUNPfRl7ly0Tl-265" value="" style="ellipse;whiteSpace=wrap;html=1;aspect=fixed;fillColor=#fff2cc;strokeColor=#d6b656;" parent="1" vertex="1">
          <mxGeometry x="-318.5" y="546.31" width="16.39" height="16.39" as="geometry" />
        </mxCell>
        <mxCell id="_Voz9XMiUNPfRl7ly0Tl-266" value="" style="endArrow=none;html=1;rounded=0;entryX=0;entryY=0.5;entryDx=0;entryDy=0;exitX=1;exitY=0.5;exitDx=0;exitDy=0;" parent="1" source="_Voz9XMiUNPfRl7ly0Tl-261" target="_Voz9XMiUNPfRl7ly0Tl-262" edge="1">
          <mxGeometry width="50" height="50" relative="1" as="geometry">
            <mxPoint x="-316" y="519.61" as="sourcePoint" />
            <mxPoint x="-266" y="469.61" as="targetPoint" />
          </mxGeometry>
        </mxCell>
        <mxCell id="_Voz9XMiUNPfRl7ly0Tl-267" value="" style="endArrow=none;html=1;rounded=0;exitX=0.5;exitY=0;exitDx=0;exitDy=0;entryX=0.5;entryY=1;entryDx=0;entryDy=0;" parent="1" source="_Voz9XMiUNPfRl7ly0Tl-263" target="_Voz9XMiUNPfRl7ly0Tl-262" edge="1">
          <mxGeometry width="50" height="50" relative="1" as="geometry">
            <mxPoint x="-316" y="519.61" as="sourcePoint" />
            <mxPoint x="-206" y="489.61" as="targetPoint" />
          </mxGeometry>
        </mxCell>
        <mxCell id="_Voz9XMiUNPfRl7ly0Tl-268" value="" style="endArrow=none;html=1;rounded=0;entryX=1;entryY=1;entryDx=0;entryDy=0;exitX=0.5;exitY=0;exitDx=0;exitDy=0;" parent="1" source="_Voz9XMiUNPfRl7ly0Tl-265" target="_Voz9XMiUNPfRl7ly0Tl-261" edge="1">
          <mxGeometry width="50" height="50" relative="1" as="geometry">
            <mxPoint x="-242" y="518.61" as="sourcePoint" />
            <mxPoint x="-236" y="507.61" as="targetPoint" />
          </mxGeometry>
        </mxCell>
        <mxCell id="_Voz9XMiUNPfRl7ly0Tl-269" value="" style="endArrow=none;html=1;rounded=0;exitX=0;exitY=1;exitDx=0;exitDy=0;entryX=1;entryY=0.5;entryDx=0;entryDy=0;" parent="1" source="_Voz9XMiUNPfRl7ly0Tl-278" target="_Voz9XMiUNPfRl7ly0Tl-263" edge="1">
          <mxGeometry width="50" height="50" relative="1" as="geometry">
            <mxPoint x="-270.90974007181694" y="603.5997400718172" as="sourcePoint" />
            <mxPoint x="-217.46446609406735" y="518.1455339059327" as="targetPoint" />
          </mxGeometry>
        </mxCell>
        <mxCell id="_Voz9XMiUNPfRl7ly0Tl-270" value="" style="endArrow=none;html=1;rounded=0;entryX=0;entryY=0.5;entryDx=0;entryDy=0;exitX=1;exitY=1;exitDx=0;exitDy=0;" parent="1" source="_Voz9XMiUNPfRl7ly0Tl-254" target="_Voz9XMiUNPfRl7ly0Tl-265" edge="1">
          <mxGeometry width="50" height="50" relative="1" as="geometry">
            <mxPoint x="-352" y="543" as="sourcePoint" />
            <mxPoint x="-348.0997400718169" y="517.2097400718171" as="targetPoint" />
          </mxGeometry>
        </mxCell>
        <mxCell id="_Voz9XMiUNPfRl7ly0Tl-273" value="" style="ellipse;whiteSpace=wrap;html=1;aspect=fixed;fillColor=#ffe6cc;strokeColor=#d79b00;" parent="1" vertex="1">
          <mxGeometry x="-245.5" y="503.22" width="16.39" height="16.39" as="geometry" />
        </mxCell>
        <mxCell id="_Voz9XMiUNPfRl7ly0Tl-274" value="" style="ellipse;whiteSpace=wrap;html=1;aspect=fixed;fillColor=#dae8fc;strokeColor=#6c8ebf;" parent="1" vertex="1">
          <mxGeometry x="-258.71999999999997" y="466" width="16.39" height="16.39" as="geometry" />
        </mxCell>
        <mxCell id="_Voz9XMiUNPfRl7ly0Tl-275" value="" style="ellipse;whiteSpace=wrap;html=1;aspect=fixed;fillColor=#fff2cc;strokeColor=#d6b656;" parent="1" vertex="1">
          <mxGeometry x="-280.61" y="503.22" width="16.39" height="16.39" as="geometry" />
        </mxCell>
        <mxCell id="_Voz9XMiUNPfRl7ly0Tl-276" value="" style="endArrow=none;html=1;rounded=0;entryX=0.5;entryY=1;entryDx=0;entryDy=0;exitX=0.5;exitY=0;exitDx=0;exitDy=0;" parent="1" source="_Voz9XMiUNPfRl7ly0Tl-273" target="_Voz9XMiUNPfRl7ly0Tl-274" edge="1">
          <mxGeometry width="50" height="50" relative="1" as="geometry">
            <mxPoint x="-321" y="519.61" as="sourcePoint" />
            <mxPoint x="-271" y="469.61" as="targetPoint" />
          </mxGeometry>
        </mxCell>
        <mxCell id="_Voz9XMiUNPfRl7ly0Tl-277" value="" style="endArrow=none;html=1;rounded=0;entryX=0;entryY=0.5;entryDx=0;entryDy=0;exitX=1;exitY=0.5;exitDx=0;exitDy=0;" parent="1" source="_Voz9XMiUNPfRl7ly0Tl-275" target="_Voz9XMiUNPfRl7ly0Tl-273" edge="1">
          <mxGeometry width="50" height="50" relative="1" as="geometry">
            <mxPoint x="-247" y="518.61" as="sourcePoint" />
            <mxPoint x="-241" y="507.61" as="targetPoint" />
          </mxGeometry>
        </mxCell>
        <mxCell id="_Voz9XMiUNPfRl7ly0Tl-278" value="" style="ellipse;whiteSpace=wrap;html=1;aspect=fixed;fillColor=#ffe6cc;strokeColor=#d79b00;" parent="1" vertex="1">
          <mxGeometry x="-287" y="566" width="16.39" height="16.39" as="geometry" />
        </mxCell>
        <mxCell id="_Voz9XMiUNPfRl7ly0Tl-279" value="" style="endArrow=none;html=1;rounded=0;exitX=1;exitY=0;exitDx=0;exitDy=0;entryX=1;entryY=1;entryDx=0;entryDy=0;" parent="1" source="_Voz9XMiUNPfRl7ly0Tl-278" target="_Voz9XMiUNPfRl7ly0Tl-273" edge="1">
          <mxGeometry width="50" height="50" relative="1" as="geometry">
            <mxPoint x="-227.30499999999995" y="513.22" as="sourcePoint" />
            <mxPoint x="-227" y="516" as="targetPoint" />
          </mxGeometry>
        </mxCell>
        <mxCell id="_Voz9XMiUNPfRl7ly0Tl-280" value="" style="endArrow=none;html=1;rounded=0;exitX=0.5;exitY=0;exitDx=0;exitDy=0;entryX=1;entryY=1;entryDx=0;entryDy=0;" parent="1" source="_Voz9XMiUNPfRl7ly0Tl-278" target="_Voz9XMiUNPfRl7ly0Tl-262" edge="1">
          <mxGeometry width="50" height="50" relative="1" as="geometry">
            <mxPoint x="-207.4897400718171" y="542.0102599281831" as="sourcePoint" />
            <mxPoint x="-221.51025992816835" y="527.2097400718317" as="targetPoint" />
          </mxGeometry>
        </mxCell>
        <mxCell id="_Voz9XMiUNPfRl7ly0Tl-282" value="" style="ellipse;whiteSpace=wrap;html=1;aspect=fixed;fillColor=#dae8fc;strokeColor=#6c8ebf;" parent="1" vertex="1">
          <mxGeometry x="-280.60999999999996" y="460.44" width="16.39" height="16.39" as="geometry" />
        </mxCell>
        <mxCell id="_Voz9XMiUNPfRl7ly0Tl-283" value="" style="endArrow=none;html=1;rounded=0;entryX=1;entryY=0;entryDx=0;entryDy=0;exitX=0;exitY=1;exitDx=0;exitDy=0;" parent="1" source="_Voz9XMiUNPfRl7ly0Tl-282" target="_Voz9XMiUNPfRl7ly0Tl-252" edge="1">
          <mxGeometry width="50" height="50" relative="1" as="geometry">
            <mxPoint x="-308.4999999999942" y="537.8050000000003" as="sourcePoint" />
            <mxPoint x="-270.61000000000047" y="552.8050000000003" as="targetPoint" />
          </mxGeometry>
        </mxCell>
        <mxCell id="_Voz9XMiUNPfRl7ly0Tl-284" value="" style="endArrow=none;html=1;rounded=0;entryX=0;entryY=0;entryDx=0;entryDy=0;exitX=1;exitY=0;exitDx=0;exitDy=0;" parent="1" source="_Voz9XMiUNPfRl7ly0Tl-261" target="_Voz9XMiUNPfRl7ly0Tl-275" edge="1">
          <mxGeometry width="50" height="50" relative="1" as="geometry">
            <mxPoint x="-308.4999999999942" y="537.8050000000003" as="sourcePoint" />
            <mxPoint x="-270.61000000000047" y="552.8050000000003" as="targetPoint" />
          </mxGeometry>
        </mxCell>
        <mxCell id="_Voz9XMiUNPfRl7ly0Tl-285" value="" style="endArrow=none;html=1;rounded=0;entryX=0.5;entryY=1;entryDx=0;entryDy=0;exitX=0.5;exitY=0;exitDx=0;exitDy=0;" parent="1" source="_Voz9XMiUNPfRl7ly0Tl-261" target="_Voz9XMiUNPfRl7ly0Tl-253" edge="1">
          <mxGeometry width="50" height="50" relative="1" as="geometry">
            <mxPoint x="-352.30499999999995" y="543.1100000000001" as="sourcePoint" />
            <mxPoint x="-364.099740071817" y="523.5997400718172" as="targetPoint" />
          </mxGeometry>
        </mxCell>
        <mxCell id="_Voz9XMiUNPfRl7ly0Tl-288" value="" style="endArrow=none;html=1;rounded=0;entryX=0.5;entryY=1;entryDx=0;entryDy=0;exitX=0.5;exitY=0;exitDx=0;exitDy=0;" parent="1" source="_Voz9XMiUNPfRl7ly0Tl-275" target="_Voz9XMiUNPfRl7ly0Tl-282" edge="1">
          <mxGeometry width="50" height="50" relative="1" as="geometry">
            <mxPoint x="-227.30499999999995" y="513.22" as="sourcePoint" />
            <mxPoint x="-240.52499999999998" y="492.3900000000001" as="targetPoint" />
          </mxGeometry>
        </mxCell>
        <mxCell id="_Voz9XMiUNPfRl7ly0Tl-289" value="&lt;b&gt;全局本体&lt;/b&gt;" style="rounded=0;whiteSpace=wrap;html=1;dashed=1;fontSize=14;fontColor=#000000;strokeColor=#000000;fillColor=none;align=right;verticalAlign=bottom;" parent="1" vertex="1">
          <mxGeometry x="-478.25" y="433" width="360" height="177" as="geometry" />
        </mxCell>
        <mxCell id="_Voz9XMiUNPfRl7ly0Tl-295" value="" style="shape=singleArrow;direction=south;whiteSpace=wrap;html=1;fontSize=13;fontColor=#000000;strokeColor=#000000;fillColor=none;arrowWidth=0.4092073139391402;arrowSize=0.46433481034674906;" parent="1" vertex="1">
          <mxGeometry x="-317.5" y="404.61" width="38.5" height="25.39" as="geometry" />
        </mxCell>
        <mxCell id="_Voz9XMiUNPfRl7ly0Tl-296" value="" style="shape=singleArrow;direction=north;whiteSpace=wrap;html=1;fontSize=13;fontColor=#000000;strokeColor=#000000;fillColor=none;arrowWidth=0.3763151469983484;arrowSize=0.5578947368421098;" parent="1" vertex="1">
          <mxGeometry x="-319" y="610" width="40" height="30" as="geometry" />
        </mxCell>
        <mxCell id="_Voz9XMiUNPfRl7ly0Tl-297" value="" style="shape=singleArrow;whiteSpace=wrap;html=1;fontSize=13;fontColor=#000000;strokeColor=#000000;fillColor=none;arrowWidth=0.27780870120958456;arrowSize=0.3267714132474163;" parent="1" vertex="1">
          <mxGeometry x="-702.5" y="275.61" width="63.5" height="44.39" as="geometry" />
        </mxCell>
        <mxCell id="_Voz9XMiUNPfRl7ly0Tl-298" value="局部本体 1" style="text;html=1;strokeColor=none;fillColor=none;align=center;verticalAlign=middle;whiteSpace=wrap;rounded=0;fontSize=13;fontColor=#000000;" parent="1" vertex="1">
          <mxGeometry x="-447.81" y="460.44" width="72.39" height="30" as="geometry" />
        </mxCell>
        <mxCell id="_Voz9XMiUNPfRl7ly0Tl-299" value="局部本体 2" style="text;html=1;strokeColor=none;fillColor=none;align=center;verticalAlign=middle;whiteSpace=wrap;rounded=0;fontSize=13;fontColor=#000000;" parent="1" vertex="1">
          <mxGeometry x="-220.22" y="460.44" width="72.39" height="30" as="geometry" />
        </mxCell>
        <mxCell id="_Voz9XMiUNPfRl7ly0Tl-300" value="局部本体 3" style="text;html=1;strokeColor=none;fillColor=none;align=center;verticalAlign=middle;whiteSpace=wrap;rounded=0;fontSize=13;fontColor=#000000;" parent="1" vertex="1">
          <mxGeometry x="-264.22" y="576" width="72.39" height="30" as="geometry" />
        </mxCell>
      </root>
    </mxGraphModel>
  </diagram>
  <diagram id="1enQ2rjsxYrqPOrnB9TU" name="Page-2">
    <mxGraphModel dx="1849" dy="1365" grid="1" gridSize="10" guides="1" tooltips="1" connect="1" arrows="1" fold="1" page="1" pageScale="1" pageWidth="827" pageHeight="1169" math="0" shadow="0">
      <root>
        <mxCell id="97DAqMDmIyuIczrWoolk-0" />
        <mxCell id="97DAqMDmIyuIczrWoolk-1" parent="97DAqMDmIyuIczrWoolk-0" />
        <mxCell id="97DAqMDmIyuIczrWoolk-89" style="edgeStyle=orthogonalEdgeStyle;rounded=0;orthogonalLoop=1;jettySize=auto;html=1;entryX=0;entryY=0.5;entryDx=0;entryDy=0;" edge="1" parent="97DAqMDmIyuIczrWoolk-1" source="97DAqMDmIyuIczrWoolk-2" target="97DAqMDmIyuIczrWoolk-3">
          <mxGeometry relative="1" as="geometry" />
        </mxCell>
        <mxCell id="97DAqMDmIyuIczrWoolk-90" style="edgeStyle=orthogonalEdgeStyle;rounded=0;orthogonalLoop=1;jettySize=auto;html=1;entryX=0;entryY=0.5;entryDx=0;entryDy=0;" edge="1" parent="97DAqMDmIyuIczrWoolk-1" source="97DAqMDmIyuIczrWoolk-2" target="97DAqMDmIyuIczrWoolk-4">
          <mxGeometry relative="1" as="geometry" />
        </mxCell>
        <mxCell id="97DAqMDmIyuIczrWoolk-91" style="edgeStyle=orthogonalEdgeStyle;rounded=0;orthogonalLoop=1;jettySize=auto;html=1;entryX=0;entryY=0.5;entryDx=0;entryDy=0;" edge="1" parent="97DAqMDmIyuIczrWoolk-1" source="97DAqMDmIyuIczrWoolk-2" target="97DAqMDmIyuIczrWoolk-5">
          <mxGeometry relative="1" as="geometry" />
        </mxCell>
        <mxCell id="97DAqMDmIyuIczrWoolk-2" value="语义BOM模型" style="ellipse;shape=cloud;whiteSpace=wrap;html=1;" vertex="1" parent="97DAqMDmIyuIczrWoolk-1">
          <mxGeometry x="-30" y="540" width="150" height="90" as="geometry" />
        </mxCell>
        <mxCell id="97DAqMDmIyuIczrWoolk-20" style="edgeStyle=orthogonalEdgeStyle;rounded=0;orthogonalLoop=1;jettySize=auto;html=1;exitX=1;exitY=0.5;exitDx=0;exitDy=0;entryX=0;entryY=0.5;entryDx=0;entryDy=0;" edge="1" parent="97DAqMDmIyuIczrWoolk-1" source="97DAqMDmIyuIczrWoolk-3" target="97DAqMDmIyuIczrWoolk-12">
          <mxGeometry relative="1" as="geometry" />
        </mxCell>
        <mxCell id="97DAqMDmIyuIczrWoolk-21" style="edgeStyle=orthogonalEdgeStyle;rounded=0;orthogonalLoop=1;jettySize=auto;html=1;exitX=1;exitY=0.5;exitDx=0;exitDy=0;entryX=0;entryY=0.5;entryDx=0;entryDy=0;" edge="1" parent="97DAqMDmIyuIczrWoolk-1" source="97DAqMDmIyuIczrWoolk-3" target="97DAqMDmIyuIczrWoolk-13">
          <mxGeometry relative="1" as="geometry" />
        </mxCell>
        <mxCell id="97DAqMDmIyuIczrWoolk-22" style="edgeStyle=orthogonalEdgeStyle;rounded=0;orthogonalLoop=1;jettySize=auto;html=1;exitX=1;exitY=0.5;exitDx=0;exitDy=0;entryX=0;entryY=0.5;entryDx=0;entryDy=0;" edge="1" parent="97DAqMDmIyuIczrWoolk-1" source="97DAqMDmIyuIczrWoolk-3" target="97DAqMDmIyuIczrWoolk-17">
          <mxGeometry relative="1" as="geometry" />
        </mxCell>
        <mxCell id="97DAqMDmIyuIczrWoolk-23" style="edgeStyle=orthogonalEdgeStyle;rounded=0;orthogonalLoop=1;jettySize=auto;html=1;exitX=1;exitY=0.5;exitDx=0;exitDy=0;" edge="1" parent="97DAqMDmIyuIczrWoolk-1" source="97DAqMDmIyuIczrWoolk-3" target="97DAqMDmIyuIczrWoolk-14">
          <mxGeometry relative="1" as="geometry" />
        </mxCell>
        <mxCell id="97DAqMDmIyuIczrWoolk-24" style="edgeStyle=orthogonalEdgeStyle;rounded=0;orthogonalLoop=1;jettySize=auto;html=1;" edge="1" parent="97DAqMDmIyuIczrWoolk-1" source="97DAqMDmIyuIczrWoolk-3" target="97DAqMDmIyuIczrWoolk-15">
          <mxGeometry relative="1" as="geometry" />
        </mxCell>
        <mxCell id="97DAqMDmIyuIczrWoolk-25" style="edgeStyle=orthogonalEdgeStyle;rounded=0;orthogonalLoop=1;jettySize=auto;html=1;entryX=0;entryY=0.5;entryDx=0;entryDy=0;" edge="1" parent="97DAqMDmIyuIczrWoolk-1" source="97DAqMDmIyuIczrWoolk-3" target="97DAqMDmIyuIczrWoolk-16">
          <mxGeometry relative="1" as="geometry" />
        </mxCell>
        <mxCell id="97DAqMDmIyuIczrWoolk-26" style="edgeStyle=orthogonalEdgeStyle;rounded=0;orthogonalLoop=1;jettySize=auto;html=1;entryX=0;entryY=0.5;entryDx=0;entryDy=0;" edge="1" parent="97DAqMDmIyuIczrWoolk-1" source="97DAqMDmIyuIczrWoolk-3" target="97DAqMDmIyuIczrWoolk-19">
          <mxGeometry relative="1" as="geometry" />
        </mxCell>
        <mxCell id="97DAqMDmIyuIczrWoolk-3" value="物料项语义表示" style="rounded=1;whiteSpace=wrap;html=1;" vertex="1" parent="97DAqMDmIyuIczrWoolk-1">
          <mxGeometry x="180" y="380" width="120" height="30" as="geometry" />
        </mxCell>
        <mxCell id="97DAqMDmIyuIczrWoolk-35" style="edgeStyle=orthogonalEdgeStyle;rounded=0;orthogonalLoop=1;jettySize=auto;html=1;exitX=1;exitY=0.5;exitDx=0;exitDy=0;entryX=0;entryY=0.75;entryDx=0;entryDy=0;" edge="1" parent="97DAqMDmIyuIczrWoolk-1" source="97DAqMDmIyuIczrWoolk-4" target="97DAqMDmIyuIczrWoolk-27">
          <mxGeometry relative="1" as="geometry" />
        </mxCell>
        <mxCell id="97DAqMDmIyuIczrWoolk-36" style="edgeStyle=orthogonalEdgeStyle;rounded=0;orthogonalLoop=1;jettySize=auto;html=1;" edge="1" parent="97DAqMDmIyuIczrWoolk-1" source="97DAqMDmIyuIczrWoolk-4" target="97DAqMDmIyuIczrWoolk-28">
          <mxGeometry relative="1" as="geometry" />
        </mxCell>
        <mxCell id="97DAqMDmIyuIczrWoolk-37" style="edgeStyle=orthogonalEdgeStyle;rounded=0;orthogonalLoop=1;jettySize=auto;html=1;entryX=0;entryY=0.5;entryDx=0;entryDy=0;" edge="1" parent="97DAqMDmIyuIczrWoolk-1" source="97DAqMDmIyuIczrWoolk-4" target="97DAqMDmIyuIczrWoolk-29">
          <mxGeometry relative="1" as="geometry" />
        </mxCell>
        <mxCell id="97DAqMDmIyuIczrWoolk-38" style="edgeStyle=orthogonalEdgeStyle;rounded=0;orthogonalLoop=1;jettySize=auto;html=1;entryX=0;entryY=0.5;entryDx=0;entryDy=0;" edge="1" parent="97DAqMDmIyuIczrWoolk-1" source="97DAqMDmIyuIczrWoolk-4" target="97DAqMDmIyuIczrWoolk-30">
          <mxGeometry relative="1" as="geometry" />
        </mxCell>
        <mxCell id="97DAqMDmIyuIczrWoolk-4" value="物料项关系语义表示" style="rounded=1;whiteSpace=wrap;html=1;" vertex="1" parent="97DAqMDmIyuIczrWoolk-1">
          <mxGeometry x="180" y="570" width="120" height="30" as="geometry" />
        </mxCell>
        <mxCell id="97DAqMDmIyuIczrWoolk-5" value="BOM配置语义表示" style="rounded=1;whiteSpace=wrap;html=1;" vertex="1" parent="97DAqMDmIyuIczrWoolk-1">
          <mxGeometry x="180" y="670" width="120" height="30" as="geometry" />
        </mxCell>
        <mxCell id="97DAqMDmIyuIczrWoolk-83" value="" style="edgeStyle=orthogonalEdgeStyle;rounded=0;orthogonalLoop=1;jettySize=auto;html=1;" edge="1" parent="97DAqMDmIyuIczrWoolk-1" source="97DAqMDmIyuIczrWoolk-12" target="97DAqMDmIyuIczrWoolk-79">
          <mxGeometry relative="1" as="geometry" />
        </mxCell>
        <mxCell id="97DAqMDmIyuIczrWoolk-12" value="装配体语义表示" style="rounded=1;whiteSpace=wrap;html=1;" vertex="1" parent="97DAqMDmIyuIczrWoolk-1">
          <mxGeometry x="354" y="290" width="120" height="30" as="geometry" />
        </mxCell>
        <mxCell id="97DAqMDmIyuIczrWoolk-84" style="edgeStyle=orthogonalEdgeStyle;rounded=0;orthogonalLoop=1;jettySize=auto;html=1;exitX=1;exitY=0.5;exitDx=0;exitDy=0;entryX=0;entryY=0.5;entryDx=0;entryDy=0;" edge="1" parent="97DAqMDmIyuIczrWoolk-1" source="97DAqMDmIyuIczrWoolk-13" target="97DAqMDmIyuIczrWoolk-78">
          <mxGeometry relative="1" as="geometry" />
        </mxCell>
        <mxCell id="97DAqMDmIyuIczrWoolk-13" value="零件语义表示" style="rounded=1;whiteSpace=wrap;html=1;" vertex="1" parent="97DAqMDmIyuIczrWoolk-1">
          <mxGeometry x="354" y="320" width="120" height="30" as="geometry" />
        </mxCell>
        <mxCell id="97DAqMDmIyuIczrWoolk-86" style="edgeStyle=orthogonalEdgeStyle;rounded=0;orthogonalLoop=1;jettySize=auto;html=1;entryX=0;entryY=0.5;entryDx=0;entryDy=0;" edge="1" parent="97DAqMDmIyuIczrWoolk-1" source="97DAqMDmIyuIczrWoolk-14" target="97DAqMDmIyuIczrWoolk-78">
          <mxGeometry relative="1" as="geometry" />
        </mxCell>
        <mxCell id="97DAqMDmIyuIczrWoolk-14" value="中间件语义表示" style="rounded=1;whiteSpace=wrap;html=1;" vertex="1" parent="97DAqMDmIyuIczrWoolk-1">
          <mxGeometry x="354" y="380" width="120" height="30" as="geometry" />
        </mxCell>
        <mxCell id="97DAqMDmIyuIczrWoolk-87" value="" style="edgeStyle=orthogonalEdgeStyle;rounded=0;orthogonalLoop=1;jettySize=auto;html=1;" edge="1" parent="97DAqMDmIyuIczrWoolk-1" source="97DAqMDmIyuIczrWoolk-15" target="97DAqMDmIyuIczrWoolk-81">
          <mxGeometry relative="1" as="geometry" />
        </mxCell>
        <mxCell id="97DAqMDmIyuIczrWoolk-15" value="原材料语义表示" style="rounded=1;whiteSpace=wrap;html=1;" vertex="1" parent="97DAqMDmIyuIczrWoolk-1">
          <mxGeometry x="354" y="410" width="120" height="30" as="geometry" />
        </mxCell>
        <mxCell id="97DAqMDmIyuIczrWoolk-88" value="" style="edgeStyle=orthogonalEdgeStyle;rounded=0;orthogonalLoop=1;jettySize=auto;html=1;" edge="1" parent="97DAqMDmIyuIczrWoolk-1" source="97DAqMDmIyuIczrWoolk-16" target="97DAqMDmIyuIczrWoolk-82">
          <mxGeometry relative="1" as="geometry" />
        </mxCell>
        <mxCell id="97DAqMDmIyuIczrWoolk-16" value="文档语义表示" style="rounded=1;whiteSpace=wrap;html=1;" vertex="1" parent="97DAqMDmIyuIczrWoolk-1">
          <mxGeometry x="354" y="440" width="120" height="30" as="geometry" />
        </mxCell>
        <mxCell id="97DAqMDmIyuIczrWoolk-85" style="edgeStyle=orthogonalEdgeStyle;rounded=0;orthogonalLoop=1;jettySize=auto;html=1;exitX=1;exitY=0.5;exitDx=0;exitDy=0;entryX=0;entryY=0.5;entryDx=0;entryDy=0;" edge="1" parent="97DAqMDmIyuIczrWoolk-1" source="97DAqMDmIyuIczrWoolk-17" target="97DAqMDmIyuIczrWoolk-78">
          <mxGeometry relative="1" as="geometry">
            <mxPoint x="520" y="349.9999999999998" as="targetPoint" />
          </mxGeometry>
        </mxCell>
        <mxCell id="97DAqMDmIyuIczrWoolk-17" value="标准件语义表示" style="rounded=1;whiteSpace=wrap;html=1;" vertex="1" parent="97DAqMDmIyuIczrWoolk-1">
          <mxGeometry x="354" y="350" width="120" height="30" as="geometry" />
        </mxCell>
        <mxCell id="97DAqMDmIyuIczrWoolk-19" value="......." style="rounded=1;whiteSpace=wrap;html=1;" vertex="1" parent="97DAqMDmIyuIczrWoolk-1">
          <mxGeometry x="354" y="470" width="120" height="30" as="geometry" />
        </mxCell>
        <mxCell id="97DAqMDmIyuIczrWoolk-39" style="edgeStyle=orthogonalEdgeStyle;rounded=0;orthogonalLoop=1;jettySize=auto;html=1;entryX=0;entryY=0.5;entryDx=0;entryDy=0;" edge="1" parent="97DAqMDmIyuIczrWoolk-1" source="97DAqMDmIyuIczrWoolk-27" target="97DAqMDmIyuIczrWoolk-31">
          <mxGeometry relative="1" as="geometry" />
        </mxCell>
        <mxCell id="97DAqMDmIyuIczrWoolk-27" value="设计知识" style="rounded=1;whiteSpace=wrap;html=1;" vertex="1" parent="97DAqMDmIyuIczrWoolk-1">
          <mxGeometry x="354" y="525" width="120" height="30" as="geometry" />
        </mxCell>
        <mxCell id="97DAqMDmIyuIczrWoolk-40" style="edgeStyle=orthogonalEdgeStyle;rounded=0;orthogonalLoop=1;jettySize=auto;html=1;" edge="1" parent="97DAqMDmIyuIczrWoolk-1" source="97DAqMDmIyuIczrWoolk-28" target="97DAqMDmIyuIczrWoolk-32">
          <mxGeometry relative="1" as="geometry" />
        </mxCell>
        <mxCell id="97DAqMDmIyuIczrWoolk-28" value="工艺知识" style="rounded=1;whiteSpace=wrap;html=1;" vertex="1" parent="97DAqMDmIyuIczrWoolk-1">
          <mxGeometry x="354" y="555" width="120" height="30" as="geometry" />
        </mxCell>
        <mxCell id="97DAqMDmIyuIczrWoolk-41" style="edgeStyle=orthogonalEdgeStyle;rounded=0;orthogonalLoop=1;jettySize=auto;html=1;entryX=0;entryY=0.5;entryDx=0;entryDy=0;" edge="1" parent="97DAqMDmIyuIczrWoolk-1" source="97DAqMDmIyuIczrWoolk-29" target="97DAqMDmIyuIczrWoolk-33">
          <mxGeometry relative="1" as="geometry" />
        </mxCell>
        <mxCell id="97DAqMDmIyuIczrWoolk-29" value="制造知识" style="rounded=1;whiteSpace=wrap;html=1;" vertex="1" parent="97DAqMDmIyuIczrWoolk-1">
          <mxGeometry x="354" y="585" width="120" height="30" as="geometry" />
        </mxCell>
        <mxCell id="97DAqMDmIyuIczrWoolk-42" value="" style="edgeStyle=orthogonalEdgeStyle;rounded=0;orthogonalLoop=1;jettySize=auto;html=1;" edge="1" parent="97DAqMDmIyuIczrWoolk-1" source="97DAqMDmIyuIczrWoolk-30" target="97DAqMDmIyuIczrWoolk-34">
          <mxGeometry relative="1" as="geometry" />
        </mxCell>
        <mxCell id="97DAqMDmIyuIczrWoolk-30" value="......" style="rounded=1;whiteSpace=wrap;html=1;" vertex="1" parent="97DAqMDmIyuIczrWoolk-1">
          <mxGeometry x="354" y="615" width="120" height="30" as="geometry" />
        </mxCell>
        <mxCell id="97DAqMDmIyuIczrWoolk-31" value="设计语义对象" style="rounded=1;whiteSpace=wrap;html=1;" vertex="1" parent="97DAqMDmIyuIczrWoolk-1">
          <mxGeometry x="520" y="525" width="120" height="30" as="geometry" />
        </mxCell>
        <mxCell id="97DAqMDmIyuIczrWoolk-32" value="工艺语义对象" style="rounded=1;whiteSpace=wrap;html=1;" vertex="1" parent="97DAqMDmIyuIczrWoolk-1">
          <mxGeometry x="520" y="555" width="120" height="30" as="geometry" />
        </mxCell>
        <mxCell id="97DAqMDmIyuIczrWoolk-33" value="制造语义对象" style="rounded=1;whiteSpace=wrap;html=1;" vertex="1" parent="97DAqMDmIyuIczrWoolk-1">
          <mxGeometry x="520" y="585" width="120" height="30" as="geometry" />
        </mxCell>
        <mxCell id="97DAqMDmIyuIczrWoolk-34" value="......" style="rounded=1;whiteSpace=wrap;html=1;" vertex="1" parent="97DAqMDmIyuIczrWoolk-1">
          <mxGeometry x="520" y="615" width="120" height="30" as="geometry" />
        </mxCell>
        <mxCell id="97DAqMDmIyuIczrWoolk-72" value="" style="edgeStyle=orthogonalEdgeStyle;rounded=0;orthogonalLoop=1;jettySize=auto;html=1;" edge="1" parent="97DAqMDmIyuIczrWoolk-1" source="97DAqMDmIyuIczrWoolk-44" target="97DAqMDmIyuIczrWoolk-65">
          <mxGeometry relative="1" as="geometry" />
        </mxCell>
        <mxCell id="97DAqMDmIyuIczrWoolk-44" value="配置条件信息" style="rounded=1;whiteSpace=wrap;html=1;" vertex="1" parent="97DAqMDmIyuIczrWoolk-1">
          <mxGeometry x="354" y="670" width="120" height="30" as="geometry" />
        </mxCell>
        <mxCell id="97DAqMDmIyuIczrWoolk-73" value="" style="edgeStyle=orthogonalEdgeStyle;rounded=0;orthogonalLoop=1;jettySize=auto;html=1;entryX=0;entryY=0.5;entryDx=0;entryDy=0;" edge="1" parent="97DAqMDmIyuIczrWoolk-1" source="97DAqMDmIyuIczrWoolk-46" target="97DAqMDmIyuIczrWoolk-66">
          <mxGeometry relative="1" as="geometry" />
        </mxCell>
        <mxCell id="97DAqMDmIyuIczrWoolk-46" value="配置变量信息" style="rounded=1;whiteSpace=wrap;html=1;" vertex="1" parent="97DAqMDmIyuIczrWoolk-1">
          <mxGeometry x="354" y="700" width="120" height="30" as="geometry" />
        </mxCell>
        <mxCell id="97DAqMDmIyuIczrWoolk-74" style="edgeStyle=orthogonalEdgeStyle;rounded=0;orthogonalLoop=1;jettySize=auto;html=1;entryX=0;entryY=0.5;entryDx=0;entryDy=0;" edge="1" parent="97DAqMDmIyuIczrWoolk-1" source="97DAqMDmIyuIczrWoolk-48" target="97DAqMDmIyuIczrWoolk-67">
          <mxGeometry relative="1" as="geometry" />
        </mxCell>
        <mxCell id="97DAqMDmIyuIczrWoolk-48" value="缺省条件信息" style="rounded=1;whiteSpace=wrap;html=1;" vertex="1" parent="97DAqMDmIyuIczrWoolk-1">
          <mxGeometry x="354" y="730" width="120" height="30" as="geometry" />
        </mxCell>
        <mxCell id="97DAqMDmIyuIczrWoolk-77" style="edgeStyle=orthogonalEdgeStyle;rounded=0;orthogonalLoop=1;jettySize=auto;html=1;entryX=0;entryY=0.5;entryDx=0;entryDy=0;" edge="1" parent="97DAqMDmIyuIczrWoolk-1" source="97DAqMDmIyuIczrWoolk-50" target="97DAqMDmIyuIczrWoolk-68">
          <mxGeometry relative="1" as="geometry" />
        </mxCell>
        <mxCell id="97DAqMDmIyuIczrWoolk-50" value="......" style="rounded=1;whiteSpace=wrap;html=1;" vertex="1" parent="97DAqMDmIyuIczrWoolk-1">
          <mxGeometry x="354" y="820" width="120" height="30" as="geometry" />
        </mxCell>
        <mxCell id="97DAqMDmIyuIczrWoolk-75" value="" style="edgeStyle=orthogonalEdgeStyle;rounded=0;orthogonalLoop=1;jettySize=auto;html=1;" edge="1" parent="97DAqMDmIyuIczrWoolk-1" source="97DAqMDmIyuIczrWoolk-55" target="97DAqMDmIyuIczrWoolk-69">
          <mxGeometry relative="1" as="geometry" />
        </mxCell>
        <mxCell id="97DAqMDmIyuIczrWoolk-55" value="限制条件信息" style="rounded=1;whiteSpace=wrap;html=1;" vertex="1" parent="97DAqMDmIyuIczrWoolk-1">
          <mxGeometry x="354" y="760" width="120" height="30" as="geometry" />
        </mxCell>
        <mxCell id="97DAqMDmIyuIczrWoolk-76" style="edgeStyle=orthogonalEdgeStyle;rounded=0;orthogonalLoop=1;jettySize=auto;html=1;entryX=0;entryY=0.5;entryDx=0;entryDy=0;" edge="1" parent="97DAqMDmIyuIczrWoolk-1" source="97DAqMDmIyuIczrWoolk-56" target="97DAqMDmIyuIczrWoolk-70">
          <mxGeometry relative="1" as="geometry" />
        </mxCell>
        <mxCell id="97DAqMDmIyuIczrWoolk-56" value="版本信息" style="rounded=1;whiteSpace=wrap;html=1;" vertex="1" parent="97DAqMDmIyuIczrWoolk-1">
          <mxGeometry x="354" y="790" width="120" height="30" as="geometry" />
        </mxCell>
        <mxCell id="97DAqMDmIyuIczrWoolk-65" value="配置条件语义对象" style="rounded=1;whiteSpace=wrap;html=1;" vertex="1" parent="97DAqMDmIyuIczrWoolk-1">
          <mxGeometry x="520" y="670" width="120" height="30" as="geometry" />
        </mxCell>
        <mxCell id="97DAqMDmIyuIczrWoolk-66" value="配置变量语义对象" style="rounded=1;whiteSpace=wrap;html=1;" vertex="1" parent="97DAqMDmIyuIczrWoolk-1">
          <mxGeometry x="520" y="700" width="120" height="30" as="geometry" />
        </mxCell>
        <mxCell id="97DAqMDmIyuIczrWoolk-67" value="缺省条件语义对象" style="rounded=1;whiteSpace=wrap;html=1;" vertex="1" parent="97DAqMDmIyuIczrWoolk-1">
          <mxGeometry x="520" y="730" width="120" height="30" as="geometry" />
        </mxCell>
        <mxCell id="97DAqMDmIyuIczrWoolk-68" value="......" style="rounded=1;whiteSpace=wrap;html=1;" vertex="1" parent="97DAqMDmIyuIczrWoolk-1">
          <mxGeometry x="520" y="820" width="120" height="30" as="geometry" />
        </mxCell>
        <mxCell id="97DAqMDmIyuIczrWoolk-69" value="限制条件语义对象" style="rounded=1;whiteSpace=wrap;html=1;" vertex="1" parent="97DAqMDmIyuIczrWoolk-1">
          <mxGeometry x="520" y="760" width="120" height="30" as="geometry" />
        </mxCell>
        <mxCell id="97DAqMDmIyuIczrWoolk-70" value="版本语义对象" style="rounded=1;whiteSpace=wrap;html=1;" vertex="1" parent="97DAqMDmIyuIczrWoolk-1">
          <mxGeometry x="520" y="790" width="120" height="30" as="geometry" />
        </mxCell>
        <mxCell id="97DAqMDmIyuIczrWoolk-78" value="零件语义对象" style="rounded=1;whiteSpace=wrap;html=1;" vertex="1" parent="97DAqMDmIyuIczrWoolk-1">
          <mxGeometry x="520" y="350" width="120" height="30" as="geometry" />
        </mxCell>
        <mxCell id="97DAqMDmIyuIczrWoolk-79" value="装配体语义对象" style="rounded=1;whiteSpace=wrap;html=1;" vertex="1" parent="97DAqMDmIyuIczrWoolk-1">
          <mxGeometry x="520" y="290" width="120" height="30" as="geometry" />
        </mxCell>
        <mxCell id="97DAqMDmIyuIczrWoolk-81" value="原材料语义对象" style="rounded=1;whiteSpace=wrap;html=1;" vertex="1" parent="97DAqMDmIyuIczrWoolk-1">
          <mxGeometry x="520" y="410" width="120" height="30" as="geometry" />
        </mxCell>
        <mxCell id="97DAqMDmIyuIczrWoolk-82" value="资源语义表示" style="rounded=1;whiteSpace=wrap;html=1;" vertex="1" parent="97DAqMDmIyuIczrWoolk-1">
          <mxGeometry x="520" y="440" width="120" height="30" as="geometry" />
        </mxCell>
      </root>
    </mxGraphModel>
  </diagram>
</mxfile>
